<?xml version="1.0" encoding="UTF-8"?>
<svg version="1.1" xmlns="http://www.w3.org/2000/svg" width="398" height="398">
<path d="M0 0 C131.34 0 262.68 0 398 0 C398 131.34 398 262.68 398 398 C266.66 398 135.32 398 0 398 C0 266.66 0 135.32 0 0 Z " fill="#FEFEFE" transform="translate(0,0)"/>
<path d="M0 0 C2.5 1.6875 2.5 1.6875 3.7578125 3.21875 C9.05178741 7.68183199 19.36862283 6.77123478 25.9375 6.4375 C33.95395995 6.29121423 40.36237203 9.46751746 47.5 12.6875 C49.58207805 13.50321135 51.66532752 14.31594211 53.75 15.125 C68.6001466 21.40392105 79.57328552 31.02234668 86.5 45.6875 C89.16127688 52.64840233 90.75204984 59.6365375 91.94140625 66.97265625 C92.53210542 69.84353684 93.4268335 72.43772435 94.4375 75.1875 C98.84026308 88.09897376 99.77556343 101.24401154 99.875 114.8125 C99.88885742 115.95017822 99.90271484 117.08785645 99.91699219 118.26000977 C99.88308971 124.30847879 99.40798343 129.23226652 96.95385742 134.79907227 C96.29747156 136.74149221 96.29747156 136.74149221 97.29370117 138.73461914 C99.92411779 142.79450015 103.36772495 145.2850145 107.5 147.6875 C103.8558226 150.1169516 101.78758728 149.84929575 97.5 149.6875 C97.54640625 150.37972656 97.5928125 151.07195312 97.640625 151.78515625 C98.17337624 166.2265203 93.90760745 179.57299419 84.75390625 190.8359375 C83.15898774 192.73128941 83.15898774 192.73128941 84 195.625 C85.68125699 199.05756635 87.66631372 201.15209649 90.5 203.6875 C86.8558226 206.1169516 84.78758728 205.84929575 80.5 205.6875 C80.5825 206.925 80.665 208.1625 80.75 209.4375 C80.73889373 216.45666482 78.92137659 224.66458357 73.9375 229.875 C71.5 231.6875 71.5 231.6875 68.5 232.6875 C68.17 228.0675 67.84 223.4475 67.5 218.6875 C66.84 218.6875 66.18 218.6875 65.5 218.6875 C65.314375 219.47125 65.12875 220.255 64.9375 221.0625 C61.31339083 230.2015579 54.56765577 237.05255785 47.5 243.6875 C48.38751953 243.81705078 48.38751953 243.81705078 49.29296875 243.94921875 C54.80484603 244.92930786 57.96708197 246.05054508 61.5 250.6875 C62.3125 253 62.3125 253 62.5 254.6875 C63.37591797 254.84798828 63.37591797 254.84798828 64.26953125 255.01171875 C66.79701713 255.77748943 68.18986008 256.78835625 70.1875 258.5 C70.78949219 259.00144531 71.39148438 259.50289063 72.01171875 260.01953125 C73.68775622 261.89792495 74.1002351 263.23027844 74.5 265.6875 C75.655 265.749375 76.81 265.81125 78 265.875 C82.99494394 266.46368982 86.48558388 268.79413093 90.5 271.6875 C87.09123679 275.57067871 83.26606463 277.71176255 78.75 280.0625 C78.00862793 280.45171631 77.26725586 280.84093262 76.50341797 281.24194336 C58.08760183 290.6875 58.08760183 290.6875 50.5 290.6875 C50.5 288.7075 50.5 286.7275 50.5 284.6875 C49.84 284.6875 49.18 284.6875 48.5 284.6875 C48.5 286.9975 48.5 289.3075 48.5 291.6875 C42.28204446 294.24051939 36.23459854 295.70672846 29.625 296.875 C28.23087891 297.14086914 28.23087891 297.14086914 26.80859375 297.41210938 C20.64466492 298.52539917 14.75857981 298.90950181 8.5 298.6875 C12.89453125 292.73046875 12.89453125 292.73046875 14.5 290.6875 C14.93183594 290.11773437 15.36367187 289.54796875 15.80859375 288.9609375 C18.3525574 287.04562076 20.60733458 287.23828213 23.75 287.125 C28.68036373 286.86057826 32.84985405 286.30964394 37.5 284.6875 C25.39110241 284.16355732 14.15474855 284.65237371 3.5625 290.8125 C-2.00504591 294.04126268 -6.03705546 296.19803796 -12.5 294.6875 C-16.89188887 293.5083353 -21.20320937 292.17510603 -25.5 290.6875 C-25.5 291.3475 -25.5 292.0075 -25.5 292.6875 C-24.77554688 292.86925781 -24.05109375 293.05101562 -23.3046875 293.23828125 C-18.03200943 294.60917755 -13.24516295 295.99429941 -8.5 298.6875 C-12.86334866 299.95938266 -16.90883104 299.51395079 -21.375 299.0625 C-22.23963867 298.97693848 -23.10427734 298.89137695 -23.99511719 298.80322266 C-34.34635752 297.65411285 -44.41268141 295.21945748 -54.5 292.6875 C-54.5 290.7075 -54.5 288.7275 -54.5 286.6875 C-55.16 286.6875 -55.82 286.6875 -56.5 286.6875 C-56.5 288.0075 -56.5 289.3275 -56.5 290.6875 C-62.78628949 290.15578111 -67.93928535 288.0875328 -73.6875 285.5625 C-74.61135498 285.16232666 -75.53520996 284.76215332 -76.48706055 284.34985352 C-83.47753699 281.26713487 -90.06883892 277.82847536 -96.5 273.6875 C-95.5007455 271.13026805 -94.83618056 269.8977751 -92.4765625 268.421875 C-91.70054688 268.09703125 -90.92453125 267.7721875 -90.125 267.4375 C-89.35414062 267.10234375 -88.58328125 266.7671875 -87.7890625 266.421875 C-85.5 265.6875 -85.5 265.6875 -81.5 265.6875 C-81.2525 265.06875 -81.005 264.45 -80.75 263.8125 C-79.27229238 261.30039704 -78.06044823 260.92642656 -75.5 259.6875 C-75.17 258.6975 -74.84 257.7075 -74.5 256.6875 C-72.87897032 254.97641311 -71.20496537 253.31496694 -69.5 251.6875 C-68.7575 250.800625 -68.015 249.91375 -67.25 249 C-64.00467551 246.27097714 -61.59097377 245.73640315 -57.48828125 245.046875 C-55.43446244 244.77181283 -55.43446244 244.77181283 -53.5 243.6875 C-54.21285156 243.03265625 -54.92570312 242.3778125 -55.66015625 241.703125 C-62.38059803 235.36080348 -67.52126374 229.14740679 -71.5 220.6875 C-71.5 220.0275 -71.5 219.3675 -71.5 218.6875 C-72.16 218.6875 -72.82 218.6875 -73.5 218.6875 C-73.73847656 219.28046875 -73.97695312 219.8734375 -74.22265625 220.484375 C-75.77010199 223.15336398 -77.36195487 224.26276129 -79.9375 225.9375 C-80.71996094 226.45828125 -81.50242188 226.9790625 -82.30859375 227.515625 C-84.5 228.6875 -84.5 228.6875 -87.5 228.6875 C-87.5 222.0875 -87.5 215.4875 -87.5 208.6875 C-92.27119784 213.13183762 -92.27119784 213.13183762 -94.5 216.6875 C-95.16 216.6875 -95.82 216.6875 -96.5 216.6875 C-97.40066783 213.98549651 -97.62838363 212.40718573 -97.6328125 209.6328125 C-97.63474609 208.46298828 -97.63474609 208.46298828 -97.63671875 207.26953125 C-97.63285156 206.45871094 -97.62898438 205.64789063 -97.625 204.8125 C-97.63080078 203.60787109 -97.63080078 203.60787109 -97.63671875 202.37890625 C-97.63005401 198.3334107 -97.43371926 194.64333351 -96.5 190.6875 C-96.02839037 184.93386257 -96.6598537 181.88034612 -99.41015625 176.87890625 C-103.08769338 169.48428859 -103.97728804 161.83675136 -103.5 153.6875 C-104.675625 153.749375 -105.85125 153.81125 -107.0625 153.875 C-111.53960301 153.89894173 -114.5241888 152.6754056 -118.5 150.6875 C-118.5 150.0275 -118.5 149.3675 -118.5 148.6875 C-116.07327765 146.8390023 -113.53173818 145.2104569 -110.98046875 143.5390625 C-108.60533082 141.7661249 -107.1269724 140.14147165 -105.5 137.6875 C-108.47 138.0175 -111.44 138.3475 -114.5 138.6875 C-113.15287263 135.00754229 -111.42341224 131.97671242 -109.3125 128.6875 C-106.33589306 123.23158849 -106.26033258 119.79355314 -107.05078125 113.73828125 C-109.45670201 94.71414493 -107.53523569 79.47121574 -98.09375 62.80859375 C-96.59916047 59.88168926 -95.70434045 57.30647494 -94.9375 54.125 C-91.52989487 40.08648306 -82.82012214 28.25321259 -70.5 20.6875 C-54.9898103 11.72694999 -39.23857679 8.07754052 -21.5 6.6875 C-21.36335938 6.06230469 -21.22671875 5.43710938 -21.0859375 4.79296875 C-20.38501907 2.27433518 -19.5174369 1.31696826 -17.5 -0.3125 C-11.78479068 -2.21756977 -5.62215895 -2.1083096 0 0 Z " fill="#141413" transform="translate(199.5,81.3125)"/>
<path d="M0 0 C-0.89301656 1.06486855 -1.7895947 2.12675041 -2.6875 3.1875 C-3.18636719 3.77917969 -3.68523437 4.37085938 -4.19921875 4.98046875 C-6.37313444 7.41846096 -8.67494842 9.70663567 -11 12 C-1.34403657 9.49208176 -1.34403657 9.49208176 7.875 5.75 C13.92227479 2.88904439 19.52679931 3.70535986 26 5 C26.64633275 6.77065111 27.2920483 8.54152753 27.9375 10.3125 C28.47697266 11.79169922 28.47697266 11.79169922 29.02734375 13.30078125 C29.70885965 15.1920563 30.3642811 17.09284329 31 19 C31.66 19 32.32 19 33 19 C33 15.04 33 11.08 33 7 C33.99 7.33 34.98 7.66 36 8 C36.09796875 8.53625 36.1959375 9.0725 36.296875 9.625 C37.50132789 15.93799444 38.99806371 22.15313159 40.59082031 28.37695312 C41.31555465 31.21724146 42.00232752 34.01445003 42.46875 36.91015625 C42.6440625 37.59980469 42.819375 38.28945312 43 39 C45.42383077 40.16953416 45.42383077 40.16953416 48 41 C50 44 50 44 50 48 C51.65 48 53.3 48 55 48 C55 48.66 55 49.32 55 50 C53.35 50 51.7 50 50 50 C50.00169189 50.92220337 50.00169189 50.92220337 50.00341797 51.86303711 C49.94422404 65.9061524 48.76384877 79.39694431 46.25 93.1875 C46.12961365 93.86666473 46.00922729 94.54582947 45.88519287 95.24557495 C41.62247795 118.99072854 32.90489562 137.65824937 12.86791992 152.08789062 C-2.13116461 162.49671394 -17.69999547 167.89431077 -36 166 C-49.95283356 163.31267515 -61.0755121 155.72160763 -72 147 C-72.80566406 146.37351562 -73.61132812 145.74703125 -74.44140625 145.1015625 C-91.64224837 130.92208569 -95.90147088 110.95469896 -99.6875 90 C-99.91244141 88.81921875 -100.13738281 87.6384375 -100.36914062 86.421875 C-102.2135772 76.24103359 -102.32242219 66.53027739 -101.5 56.25 C-101.4071875 55.05890625 -101.314375 53.8678125 -101.21875 52.640625 C-101.1465625 51.76921875 -101.074375 50.8978125 -101 50 C-102.65 50 -104.3 50 -106 50 C-106 49.34 -106 48.68 -106 48 C-104.35 48 -102.7 48 -101 48 C-100.95875 47.175 -100.9175 46.35 -100.875 45.5 C-100.03146529 42.12586115 -99.46549302 41.07975734 -97.375 38.5 C-91.16996487 30.72501622 -87.36887999 21.28223126 -84 12 C-82.82566406 11.92523438 -81.65132812 11.85046875 -80.44140625 11.7734375 C-68.77672687 10.87596687 -58.81796286 8.39405114 -48 4 C-47.01773438 3.608125 -46.03546875 3.21625 -45.0234375 2.8125 C-44.35570312 2.544375 -43.68796875 2.27625 -43 2 C-44.94880343 6.05765352 -47.3041815 9.82953716 -49.66015625 13.66015625 C-51.11979157 16.03104625 -51.11979157 16.03104625 -52 19 C-53.26714844 18.95359375 -54.53429687 18.9071875 -55.83984375 18.859375 C-68.48723421 18.35516963 -68.48723421 18.35516963 -80 23 C-81.010625 23.495 -82.02125 23.99 -83.0625 24.5 C-83.701875 24.995 -84.34125 25.49 -85 26 C-85 27.32 -85 28.64 -85 30 C-81.72394745 28.93528292 -78.63005724 27.82824086 -75.5 26.375 C-67.83649994 23.51219825 -58.95035589 23.86048578 -51.4375 26.9375 C-50.69371094 27.29714844 -49.94992188 27.65679687 -49.18359375 28.02734375 C-46.80444712 29.08710674 -44.56193101 29.57226108 -42 30 C-42 28.35 -42 26.7 -42 25 C-44.64 23.68 -47.28 22.36 -50 21 C-46.00329527 13.00659055 -36.1354797 9.80574264 -28 7 C-24.69125511 5.95030168 -21.37451559 4.93735616 -18.046875 3.94921875 C-15.50303243 3.15671395 -13.08458734 2.26529478 -10.625 1.25 C-6.67195917 -0.11311753 -4.11483026 -0.25717689 0 0 Z " fill="#EFAB87" transform="translate(223,176)"/>
<path d="M0 0 C12.18692548 11.00847278 17.24095593 27.2995769 18.3125 43.25 C18.45366386 47.99801036 18.49833649 52.74107196 18.49780273 57.4909668 C18.50001956 59.70705552 18.51831935 61.92266888 18.53710938 64.13867188 C18.54003854 65.54947748 18.54202652 66.96028542 18.54296875 68.37109375 C18.54707764 69.6439624 18.55118652 70.91683105 18.55541992 72.22827148 C18.3125 75.25 18.3125 75.25 16.3125 77.25 C11.48429934 76.89843199 7.33162562 75.66827534 2.8125 74 C-9.27034218 69.73454092 -22.0603802 67.30528359 -34.6875 65.25 C-34.6968457 64.51475098 -34.70619141 63.77950195 -34.71582031 63.02197266 C-34.77003278 59.63900851 -34.85357971 56.2573525 -34.9375 52.875 C-34.95167969 51.71871094 -34.96585937 50.56242187 -34.98046875 49.37109375 C-35.22860136 40.58719934 -36.25155966 32.26145277 -42.8125 25.875 C-49.17222759 21.06775409 -56.75701991 18.55404397 -64.6875 18.25 C-65.88632813 18.1984375 -67.08515625 18.146875 -68.3203125 18.09375 C-79.93715419 17.75587179 -91.32438954 18.60708891 -100.6875 26.25 C-108.75924324 34.14237117 -109.15776218 43.55612437 -109.375 54.3125 C-109.40916016 55.46427734 -109.44332031 56.61605469 -109.47851562 57.80273438 C-109.56029821 60.6183921 -109.62967375 63.43376571 -109.6875 66.25 C-110.76644531 66.40855469 -111.84539062 66.56710938 -112.95703125 66.73046875 C-122.24210649 68.15524032 -131.26217505 70.01994358 -140.31567383 72.53588867 C-144.42724523 73.67747421 -148.45325322 74.64318119 -152.6875 75.25 C-155.33066736 71.28524896 -155.0289423 67.85523078 -155 63.25 C-154.99581055 62.33444336 -154.99162109 61.41888672 -154.98730469 60.47558594 C-154.2053306 10.57898402 -154.2053306 10.57898402 -141.6875 -1.75 C-138.53429207 -4.18810542 -135.26677836 -6.00872945 -131.6875 -7.75 C-130.79160156 -8.19085938 -129.89570313 -8.63171875 -128.97265625 -9.0859375 C-92.15912014 -25.75050117 -32.62205067 -25.62130086 0 0 Z " fill="#B8C3C7" transform="translate(268.6875,110.75)"/>
<path d="M0 0 C-0.89301656 1.06486855 -1.7895947 2.12675041 -2.6875 3.1875 C-3.18636719 3.77917969 -3.68523437 4.37085938 -4.19921875 4.98046875 C-6.37313444 7.41846096 -8.67494842 9.70663567 -11 12 C-1.34403657 9.49208176 -1.34403657 9.49208176 7.875 5.75 C13.92227479 2.88904439 19.52679931 3.70535986 26 5 C26.64633275 6.77065111 27.2920483 8.54152753 27.9375 10.3125 C28.47697266 11.79169922 28.47697266 11.79169922 29.02734375 13.30078125 C29.70885965 15.1920563 30.3642811 17.09284329 31 19 C31.66 19 32.32 19 33 19 C33 15.04 33 11.08 33 7 C33.99 7.33 34.98 7.66 36 8 C36.09796875 8.53625 36.1959375 9.0725 36.296875 9.625 C37.86325354 17.83498408 39.93593835 25.90458938 42 34 C42.33432273 35.33308559 42.66827624 36.6662653 43 38 C41.98421875 37.83886719 40.9684375 37.67773438 39.921875 37.51171875 C33.38860974 36.70008839 26.82331451 36.8157349 20.25 36.8125 C18.95578125 36.80025391 17.6615625 36.78800781 16.328125 36.77539062 C0.30612404 36.67971631 0.30612404 36.67971631 -14 43 C-17.03796909 46.03796909 -17.52097826 48.78460865 -18 53 C-19.485 52.505 -19.485 52.505 -21 52 C-22.49774018 51.90774789 -23.99942974 51.8699981 -25.5 51.875 C-26.2734375 51.87242187 -27.046875 51.86984375 -27.84375 51.8671875 C-30.18447017 51.91854187 -30.18447017 51.91854187 -33 53 C-33.226875 51.7625 -33.45375 50.525 -33.6875 49.25 C-34.46485169 46.21028684 -34.93999035 45.06530462 -37.125 42.6875 C-47.07791337 36.84557259 -57.42102193 36.81341871 -68.70556641 36.81469727 C-70.8625061 36.81251265 -73.01893181 36.79431898 -75.17578125 36.77539062 C-82.36636092 36.74705674 -89.02804608 37.02695264 -96 39 C-93.98735405 33.68300995 -91.34932517 28.71866518 -88.75390625 23.66796875 C-86.8710874 19.878366 -85.43170555 15.97987874 -84 12 C-82.82566406 11.92523438 -81.65132812 11.85046875 -80.44140625 11.7734375 C-68.77672687 10.87596687 -58.81796286 8.39405114 -48 4 C-47.01773438 3.608125 -46.03546875 3.21625 -45.0234375 2.8125 C-44.35570312 2.544375 -43.68796875 2.27625 -43 2 C-44.94880343 6.05765352 -47.3041815 9.82953716 -49.66015625 13.66015625 C-51.11979157 16.03104625 -51.11979157 16.03104625 -52 19 C-53.26714844 18.95359375 -54.53429687 18.9071875 -55.83984375 18.859375 C-68.48723421 18.35516963 -68.48723421 18.35516963 -80 23 C-81.010625 23.495 -82.02125 23.99 -83.0625 24.5 C-83.701875 24.995 -84.34125 25.49 -85 26 C-85 27.32 -85 28.64 -85 30 C-81.72394745 28.93528292 -78.63005724 27.82824086 -75.5 26.375 C-67.83649994 23.51219825 -58.95035589 23.86048578 -51.4375 26.9375 C-50.69371094 27.29714844 -49.94992188 27.65679687 -49.18359375 28.02734375 C-46.80444712 29.08710674 -44.56193101 29.57226108 -42 30 C-42 28.35 -42 26.7 -42 25 C-44.64 23.68 -47.28 22.36 -50 21 C-46.00329527 13.00659055 -36.1354797 9.80574264 -28 7 C-24.69125511 5.95030168 -21.37451559 4.93735616 -18.046875 3.94921875 C-15.50303243 3.15671395 -13.08458734 2.26529478 -10.625 1.25 C-6.67195917 -0.11311753 -4.11483026 -0.25717689 0 0 Z " fill="#ECAA86" transform="translate(223,176)"/>
<path d="M0 0 C1.95969727 -0.0309375 1.95969727 -0.0309375 3.95898438 -0.0625 C12.7977487 -0.09808637 21.00521814 0.08532015 28.1875 5.6875 C30.0625 8.25 30.0625 8.25 30.0625 12.25 C31.7125 12.25 33.3625 12.25 35.0625 12.25 C35.0625 12.91 35.0625 13.57 35.0625 14.25 C33.4125 14.25 31.7625 14.25 30.0625 14.25 C30.02511719 14.98863281 29.98773438 15.72726563 29.94921875 16.48828125 C29.40991445 24.8104869 28.74061037 33.10324846 24.125 40.25 C13.45825989 47.21603436 -2.16708362 46.62068795 -14.38671875 44.7109375 C-22.32506667 42.69590358 -29.61870453 39.6638416 -34.9375 33.25 C-38.31929435 26.65550101 -38.85941848 18.52773295 -37.9375 11.25 C-34.77024259 5.63067234 -30.00727822 2.98041923 -23.9375 1.25 C-15.9836203 0.03560583 -8.03383355 0.03161371 0 0 Z " fill="#EFAC88" transform="translate(242.9375,211.75)"/>
<path d="M0 0 C2.10854501 0.02360402 4.21581878 0.02053849 6.32446289 0.01391602 C28.65306814 0.05783835 28.65306814 0.05783835 37.17797852 7.33618164 C40.74582596 11.2246421 40.62828503 14.2292747 40.45141602 19.32446289 C39.8058508 26.4349026 38.8496388 32.3348051 33.42797852 37.33618164 C24.53722214 44.12165873 14.27371487 45.72272184 3.36547852 45.64868164 C2.4939917 45.64304199 1.62250488 45.63740234 0.72460938 45.6315918 C-7.40368508 45.4793229 -15.18445467 45.14013939 -21.82202148 40.02368164 C-26.63435466 32.83221746 -28.50300288 22.84844914 -27.82202148 14.33618164 C-29.47202148 14.33618164 -31.12202148 14.33618164 -32.82202148 14.33618164 C-32.82202148 13.67618164 -32.82202148 13.01618164 -32.82202148 12.33618164 C-31.17202148 12.33618164 -29.52202148 12.33618164 -27.82202148 12.33618164 C-27.66733398 10.94399414 -27.66733398 10.94399414 -27.50952148 9.52368164 C-26.77748948 6.1297151 -26.40479454 5.44722537 -23.82202148 3.33618164 C-16.35108208 -0.31427229 -8.12318219 -0.09702978 0 0 Z " fill="#EFAC88" transform="translate(149.822021484375,211.663818359375)"/>
<path d="M0 0 C0.495 1.98 0.495 1.98 1 4 C3.64 4 6.28 4 9 4 C9.8125 6 9.8125 6 10 9 C7.29530714 15.38256959 3.31173167 18.99191529 -2.9375 21.90234375 C-12.57959057 25.53486746 -26.1178456 25.93144534 -35.8125 22.3125 C-41.95274393 19.26377261 -46.63132571 15.68802152 -49 9 C-48.6875 6.125 -48.6875 6.125 -48 4 C-45.36 4 -42.72 4 -40 4 C-40 3.01 -40 2.02 -40 1 C-38.13021484 1.24169922 -38.13021484 1.24169922 -36.22265625 1.48828125 C-30.62354734 2.10723968 -25.06626259 2.18381866 -19.4375 2.1875 C-18.44814453 2.19974609 -17.45878906 2.21199219 -16.43945312 2.22460938 C-10.59843169 2.23623715 -5.59786792 1.68401972 0 0 Z " fill="#EBA884" transform="translate(216,343)"/>
<path d="M0 0 C2.7312954 1.36637838 5.15397968 3.0881865 7.625 4.875 C8.92836492 5.79094739 10.23301499 6.7050693 11.5390625 7.6171875 C12.10834473 8.02565918 12.67762695 8.43413086 13.26416016 8.85498047 C15.11150738 10.07355409 17.0042233 11.04773096 19 12 C19 12.66 19 13.32 19 14 C17.83984375 13.98259766 17.83984375 13.98259766 16.65625 13.96484375 C10.66063636 13.91290155 4.92697017 14.08815844 -1 15 C-1.33 13.35 -1.66 11.7 -2 10 C-1.32929915 18.94267802 4.52518811 25.3083187 11 31 C15.58951901 34.80832429 20.56264759 37.38328219 25.9609375 39.88671875 C28 41 28 41 29 43 C25.87942644 42.51241038 23.29944057 41.72232099 20.34375 40.55078125 C16.11339392 38.94071314 11.96407248 38.15863364 7.5 37.5 C1.64998883 36.6368836 -3.58267091 35.44498924 -9 33 C-9.33 32.01 -9.66 31.02 -10 30 C-9.67 29.34 -9.34 28.68 -9 28 C-8.93049459 26.45976004 -8.91547643 24.91665012 -8.9375 23.375 C-8.94652344 22.55773437 -8.95554688 21.74046875 -8.96484375 20.8984375 C-8.97644531 20.27195312 -8.98804688 19.64546875 -9 19 C-9.66 19 -10.32 19 -11 19 C-10.67 21.31 -10.34 23.62 -10 26 C-15.34560482 25.73271976 -18.08029827 23.6490223 -22.09765625 20.43359375 C-24.26982408 18.79666235 -26.40722435 17.81024239 -29 17 C-25.59949622 12.21410579 -25.59949622 12.21410579 -22.375 11.0625 C-21.59125 10.711875 -20.8075 10.36125 -20 10 C-19.30899447 8.00827818 -18.64097297 6.00838196 -18 4 C-15.875 3.125 -15.875 3.125 -14 3 C-14 4.32 -14 5.64 -14 7 C-13.236875 6.21625 -12.47375 5.4325 -11.6875 4.625 C-7.70668113 0.73675831 -5.56338194 -0.72680762 0 0 Z " fill="#F1F1F1" transform="translate(152,329)"/>
<path d="M0 0 C4.17106362 1.43545772 5.85818815 3.69519344 8.76953125 6.953125 C8.43953125 4.973125 8.10953125 2.993125 7.76953125 0.953125 C9.51953125 1.015625 9.51953125 1.015625 11.76953125 1.953125 C12.77413892 3.70308675 13.7741539 5.45686415 14.70703125 7.24609375 C16.24619462 9.71894079 18.2111722 10.64274597 20.76953125 11.953125 C22.45430469 13.26350434 24.12601668 14.59135578 25.76953125 15.953125 C25.6328125 17.82421875 25.6328125 17.82421875 24.76953125 19.953125 C22.1875 21.11328125 22.1875 21.11328125 18.95703125 22.015625 C14.8557288 23.17957563 12.1322573 24.37819594 8.76953125 26.953125 C7.77953125 26.953125 6.78953125 26.953125 5.76953125 26.953125 C4.40000452 24.21407155 4.64331764 21.98225168 4.76953125 18.953125 C5.09953125 18.293125 5.42953125 17.633125 5.76953125 16.953125 C5.10953125 16.953125 4.44953125 16.953125 3.76953125 16.953125 C3.56363404 24.51720033 3.56363404 24.51720033 4.76953125 31.953125 C-2.95443789 35.46402006 -10.92062001 35.07593065 -19.23046875 34.953125 C-18.20953125 33.9321875 -18.20953125 33.9321875 -17.16796875 32.890625 C-16.71292969 32.42914063 -16.25789062 31.96765625 -15.7890625 31.4921875 C-14.72331179 30.43979206 -13.63030777 29.41448394 -12.515625 28.4140625 C-7.68160917 23.9502667 -4.57054718 19.12144232 -2.23046875 12.953125 C-2.23046875 11.963125 -2.23046875 10.973125 -2.23046875 9.953125 C-2.89046875 11.273125 -3.55046875 12.593125 -4.23046875 13.953125 C-10.34101115 14.06581943 -16.18217389 13.84916868 -22.23046875 12.953125 C-18.38515632 9.7911006 -14.42772205 6.90454513 -10.29296875 4.140625 C-9.40061523 3.51124023 -9.40061523 3.51124023 -8.49023438 2.86914062 C-5.50203013 0.88680185 -3.62005867 -0.05252806 0 0 Z " fill="#C2C2C2" transform="translate(244.23046875,329.046875)"/>
<path d="M0 0 C8.27765529 5.66869133 16.56682631 7.85455333 26.3671875 9.62109375 C32.44836463 10.72149723 37.77240031 11.94532597 43.3671875 14.62109375 C42.0471875 14.95109375 40.7271875 15.28109375 39.3671875 15.62109375 C39.3671875 16.28109375 39.3671875 16.94109375 39.3671875 17.62109375 C40.09164062 17.80285156 40.81609375 17.98460937 41.5625 18.171875 C46.83517807 19.5427713 51.62202455 20.92789316 56.3671875 23.62109375 C52.00383884 24.89297641 47.95835646 24.44754454 43.4921875 23.99609375 C42.19522949 23.86775146 42.19522949 23.86775146 40.87207031 23.73681641 C30.52082998 22.5877066 20.45450609 20.15305123 10.3671875 17.62109375 C10.3671875 15.64109375 10.3671875 13.66109375 10.3671875 11.62109375 C9.7071875 11.62109375 9.0471875 11.62109375 8.3671875 11.62109375 C8.3671875 12.94109375 8.3671875 14.26109375 8.3671875 15.62109375 C1.8791325 15.11099839 -3.41219285 12.81445679 -9.3203125 10.18359375 C-10.25681641 9.77560547 -11.19332031 9.36761719 -12.15820312 8.94726562 C-16.0289763 7.25362968 -19.8664477 5.53746592 -23.6328125 3.62109375 C-23.3028125 1.31109375 -22.9728125 -0.99890625 -22.6328125 -3.37890625 C-13.40796742 -5.90998619 -7.91872672 -5.55910613 0 0 Z " fill="#363037" transform="translate(134.6328125,356.37890625)"/>
<path d="M0 0 C9.23418496 2.59711452 15.27633244 11.19148832 20 19 C27.52150931 32.69300413 28.18701708 47.9850302 28.18530273 63.2409668 C28.18751956 65.45705552 28.20581935 67.67266888 28.22460938 69.88867188 C28.22753854 71.29947748 28.22952652 72.71028542 28.23046875 74.12109375 C28.23457764 75.3939624 28.23868652 76.66683105 28.24291992 77.97827148 C28 81 28 81 26 83 C21.17179934 82.64843199 17.01912562 81.41827534 12.5 79.75 C0.40589023 75.48056326 -12.37287454 73.10452091 -25 71 C-25 64.07 -25 57.14 -25 50 C-24.67 50 -24.34 50 -24 50 C-23.97421875 50.95261719 -23.9484375 51.90523437 -23.921875 52.88671875 C-23.86515625 54.14097656 -23.8084375 55.39523438 -23.75 56.6875 C-23.70359375 57.92886719 -23.6571875 59.17023438 -23.609375 60.44921875 C-22.89814812 64.59348307 -22.16287655 66.23563581 -19 69 C-16.239855 69.75867087 -13.86974246 70.23207131 -11.0625 70.5625 C-5.46937648 71.3660546 -0.26070697 72.39851952 5.125 74.1875 C9.66921386 75.67945994 13.23834143 76.54109756 18 76 C20.650279 73.349721 19.31121147 66.01671899 19.3190918 62.47436523 C19.05993822 41.40935897 15.54564628 19.62556143 2 3 C1.34 2.01 0.68 1.02 0 0 Z " fill="#B4BFC3" transform="translate(259,105)"/>
<path d="M0 0 C1.40153445 -0.0104093 2.80303537 -0.02749021 4.20440674 -0.05126953 C6.19279674 -0.08093689 8.1815892 -0.0781982 10.17019653 -0.07421875 C11.32592163 -0.07607178 12.48164673 -0.0779248 13.6723938 -0.07983398 C16.54129028 0.421875 16.54129028 0.421875 18.41995239 2.23022461 C20.04236286 5.40121933 19.85989694 7.91720181 19.54129028 11.421875 C18.88129028 12.411875 18.22129028 13.401875 17.54129028 14.421875 C14.55784555 14.83166681 11.76149629 15.05290434 8.76394653 15.15234375 C7.44226723 15.21256462 7.44226723 15.21256462 6.09388733 15.27400208 C3.26424946 15.39932556 0.43424464 15.50429399 -2.39620972 15.609375 C-4.26931227 15.69078609 -6.14236066 15.77345406 -8.01535034 15.85742188 C-16.83364186 16.23998592 -25.63051591 16.52903328 -34.45870972 16.421875 C-34.45870972 12.131875 -34.45870972 7.841875 -34.45870972 3.421875 C-23.00469368 1.1337957 -11.6719871 0.08638043 0 0 Z " fill="#B0BABD" transform="translate(196.45870971679688,157.578125)"/>
<path d="M0 0 C2.9599561 2.17152535 4.75002319 4.13914956 6.73046875 7.26953125 C6.80569438 10.42900754 6.06021308 11.77855834 4.31640625 14.375 C0.28075038 17.3316361 -3.82520642 16.90711484 -8.70703125 16.95703125 C-10.58080538 16.99935469 -12.45451156 17.04482714 -14.328125 17.09375 C-15.57033813 17.1105481 -15.57033813 17.1105481 -16.83764648 17.12768555 C-19.39554817 17.2768815 -21.76553333 17.73941359 -24.26953125 18.26953125 C-30.36821812 18.83422448 -33.29941939 17.51531859 -38.26953125 14.26953125 C-35.69227675 6.75253895 -31.14219858 2.83602907 -24.26953125 -0.73046875 C-16.40994752 -3.84464343 -7.44896655 -4.34651038 0 0 Z " fill="#201E1D" transform="translate(248.26953125,222.73046875)"/>
<path d="M0 0 C4.28768349 3.01960704 7.40469386 5.98778418 9.80078125 10.67578125 C8.80078125 13.67578125 8.80078125 13.67578125 6.42578125 15.42578125 C2.24874887 16.86613724 -0.21123468 16.62362955 -4.51953125 16.05078125 C-7.58996613 15.73787069 -10.54789368 15.60134146 -13.62890625 15.55078125 C-14.60408203 15.52918945 -15.57925781 15.50759766 -16.58398438 15.48535156 C-18.55376277 15.44611039 -20.52397415 15.42419303 -22.49414062 15.42089844 C-27.19314488 15.29758657 -29.49697945 15.20289636 -33.34765625 12.3125 C-35.19921875 9.67578125 -35.19921875 9.67578125 -35.44921875 6.73828125 C-33.31485255 1.50908406 -29.3727342 -1.26161119 -24.38671875 -3.69921875 C-15.67685092 -5.40703597 -7.67472946 -4.62119589 0 0 Z " fill="#1C1C1C" transform="translate(173.19921875,224.32421875)"/>
<path d="M0 0 C-2.61360932 3.19750077 -5.52568226 4.11835179 -9.375 5.4375 C-9.9935083 5.652854 -10.6120166 5.86820801 -11.24926758 6.09008789 C-15.36065703 7.50414638 -19.50854983 8.73636462 -23.6875 9.9375 C-31.32463385 12.24640093 -39.45588857 15.10958267 -44 22 C-43.071875 22.28875 -42.14375 22.5775 -41.1875 22.875 C-38 24 -38 24 -35 26 C-34.8125 28.625 -34.8125 28.625 -35 31 C-37.71939842 32.05267036 -39.50765635 32.17147141 -42.265625 31.2109375 C-44.53993088 30.19116809 -46.77696045 29.1268059 -49 28 C-54.56082769 25.21958615 -62.79594764 26.2718976 -68.48828125 28.15234375 C-70.53826027 29.05593646 -72.56990141 30.00310368 -74.57421875 31.00390625 C-77 32 -77 32 -80 31 C-80 28.8125 -80 28.8125 -79 26 C-72.57834939 20.60520044 -65.66954457 18.72107716 -57.375 18.8125 C-55.43753906 18.82216797 -55.43753906 18.82216797 -53.4609375 18.83203125 C-50.75478692 18.96336813 -48.55970374 19.18791125 -46 20 C-45.86271484 18.94232422 -45.86271484 18.94232422 -45.72265625 17.86328125 C-44.85992047 14.4449822 -43.38106777 12.12052045 -41.4375 9.1875 C-40.47650391 7.72376953 -40.47650391 7.72376953 -39.49609375 6.23046875 C-39.00238281 5.49441406 -38.50867188 4.75835937 -38 4 C-38.79664063 4.33773437 -39.59328125 4.67546875 -40.4140625 5.0234375 C-41.47367188 5.46945313 -42.53328125 5.91546875 -43.625 6.375 C-44.66914063 6.81585938 -45.71328125 7.25671875 -46.7890625 7.7109375 C-56.165 11.475 -56.165 11.475 -60 10 C-59 8 -59 8 -56.3046875 7.03515625 C-55.17289063 6.71417969 -54.04109375 6.39320313 -52.875 6.0625 C-49.16418854 4.98085518 -45.60601482 3.93461956 -42.125 2.25 C-38.55580622 0.82232249 -35.80959688 0.76675937 -32 1 C-34.31 4.63 -36.62 8.26 -39 12 C-35.49014987 10.01733657 -32.03566707 8.02267466 -28.6328125 5.859375 C-18.95779182 -0.08265558 -11.22020756 -0.98880654 0 0 Z " fill="#0A0706" transform="translate(217,175)"/>
<path d="M0 0 C0.66 0 1.32 0 2 0 C5.2459975 8.9186145 6.6769275 17.2851064 7.5625 26.67578125 C8.00152096 31.3068426 8.76438518 35.85261124 9.6328125 40.421875 C10.0439625 43.30867286 10.05960418 46.08791018 10 49 C5.92039957 48.4991562 4.46904517 46.59614177 2 43.4375 C-1.27903227 39.1485988 -4.01273574 35.02096235 -6 30 C-6.29777344 29.25363281 -6.59554687 28.50726563 -6.90234375 27.73828125 C-9.24371046 21.03787236 -10.23874627 14.03922482 -9 7 C-6.1875 4.375 -6.1875 4.375 -3 3 C-2.4225 2.4225 -1.845 1.845 -1.25 1.25 C-0.8375 0.8375 -0.425 0.425 0 0 Z " fill="#C67259" transform="translate(110,225)"/>
<path d="M0 0 C2.64 0.33 5.28 0.66 8 1 C8 5.60147126 5.10228152 7.80688592 2 11 C0.05341967 12.75806017 -1.93543443 14.37784133 -4 16 C-3.14277344 15.98839844 -2.28554687 15.97679687 -1.40234375 15.96484375 C9.06978639 15.88220011 9.06978639 15.88220011 13 16.6875 C16.69544116 17.07244179 18.03815418 16.11560415 21 14 C21.66 14 22.32 14 23 14 C23 14.99 23 15.98 23 17 C22.34 17 21.68 17 21 17 C20.505 18.485 20.505 18.485 20 20 C19.34 19.67 18.68 19.34 18 19 C18 21.31 18 23.62 18 26 C11.78204446 28.55301939 5.73459854 30.01922846 -0.875 31.1875 C-1.80441406 31.36474609 -2.73382813 31.54199219 -3.69140625 31.72460938 C-9.85533508 32.83789917 -15.74142019 33.22200181 -22 33 C-17.60546875 27.04296875 -17.60546875 27.04296875 -16 25 C-15.56816406 24.43023437 -15.13632813 23.86046875 -14.69140625 23.2734375 C-12.1474426 21.35812076 -9.89266542 21.55078213 -6.75 21.4375 C-1.79051857 21.24540741 2.3005268 20.48498582 7 19 C5.79601562 19.02320313 4.59203125 19.04640625 3.3515625 19.0703125 C1.77604785 19.08906863 0.20052652 19.10726899 -1.375 19.125 C-2.1690625 19.14175781 -2.963125 19.15851563 -3.78125 19.17578125 C-5.85492015 19.19335473 -7.92883241 19.10335168 -10 19 C-10.66 18.34 -11.32 17.68 -12 17 C-9.32521756 15.3372974 -7.0004856 14.00016187 -4 13 C-1.90774499 8.9385638 -1.04905942 4.42103614 0 0 Z " fill="#7B5E33" transform="translate(230,347)"/>
<path d="M0 0 C1.47923446 0.14514409 2.95838296 0.29116422 4.4375 0.4375 C5.67306641 0.55931641 5.67306641 0.55931641 6.93359375 0.68359375 C8.62038497 0.85764482 10.30668411 1.03881077 11.98901367 1.25170898 C17.81899921 1.96973199 23.56567224 2.19169341 29.4375 2.1875 C30.38383301 2.18814453 31.33016602 2.18878906 32.30517578 2.18945312 C41.29405748 2.12325885 50.10389735 1.23007839 59 0 C57.07210875 5.22424102 54.98465333 7.46782316 49.96118164 10.04663086 C43.03317502 13.10451458 36.95304327 13.60885518 29.4375 13.5 C28.36564453 13.51546875 27.29378906 13.5309375 26.18945312 13.546875 C17.15979008 13.50269316 9.62074437 11.4260166 3 5 C1.1875 2.25 1.1875 2.25 0 0 Z " fill="#F0F0F0" transform="translate(167,297)"/>
<path d="M0 0 C3.57502443 0.47452 7.06183927 1.0129728 10.59375 1.75390625 C29.00751075 5.56555472 47.64969869 5.01542875 66 1 C66.33 0.67 66.66 0.34 67 0 C68.66617115 -0.04063832 70.33388095 -0.042721 72 0 C72 4 72 4 70.4375 5.75 C69.633125 6.4925 68.82875 7.235 68 8 C67.53722656 8.61230469 67.07445312 9.22460938 66.59765625 9.85546875 C61.10904649 17.0081069 54.249576 19.73621318 45.625 21.8125 C19.82434368 23.14701671 19.82434368 23.14701671 10 15 C7.01086284 12.2194073 4.24290121 9.42337552 2 6 C2 5.34 2 4.68 2 4 C1.01 4 0.02 4 -1 4 C-0.67 2.68 -0.34 1.36 0 0 Z M6 5 C10.78142279 11.91745358 14.68665946 15.79092361 23 18 C35.10484166 19.10777914 49.61191093 20.35186451 60 13 C62.19390037 11.06615248 63.43312949 9.51818475 65 7 C65 6.34 65 5.68 65 5 C63.95585937 5.144375 62.91171875 5.28875 61.8359375 5.4375 C45.86847013 7.50612994 29.69475734 8.27076027 13.77734375 5.4375 C11.13067329 5.02058426 8.6735047 4.92151179 6 5 Z " fill="#161311" transform="translate(161,292)"/>
<path d="M0 0 C1 2 1 2 0.51611328 3.71142578 C0.24524902 4.4073584 -0.02561523 5.10329102 -0.3046875 5.8203125 C-2.37901524 11.7223531 -3.23279656 17.70095218 -4.125 23.875 C-4.29386719 24.98230469 -4.46273437 26.08960938 -4.63671875 27.23046875 C-6.105501 37.07246632 -7.17821988 46.85493619 -7.1875 56.8125 C-7.19974609 57.52341797 -7.21199219 58.23433594 -7.22460938 58.96679688 C-7.23679727 63.36662651 -6.6231938 66.91314447 -5 71 C-8 73 -8 73 -10.625 72.75 C-11.800625 72.37875 -11.800625 72.37875 -13 72 C-14.51948164 68.96103671 -14.18370974 65.79233798 -14.203125 62.45703125 C-14.21167511 61.31605232 -14.21167511 61.31605232 -14.22039795 60.15202332 C-14.22986249 58.53210847 -14.23638768 56.91217425 -14.24023438 55.29223633 C-14.24978545 52.86698007 -14.28072535 50.4426296 -14.3125 48.01757812 C-14.40511043 34.84610999 -13.47740905 22.03596233 -7 10.25 C-6.48566406 9.24453125 -6.48566406 9.24453125 -5.9609375 8.21875 C-4.31283309 5.07351258 -2.74416172 2.29823544 0 0 Z " fill="#B3BEC1" transform="translate(120,116)"/>
<path d="M0 0 C2.10854501 0.02360402 4.21581878 0.02053849 6.32446289 0.01391602 C28.65306814 0.05783835 28.65306814 0.05783835 37.17797852 7.33618164 C40.74582596 11.2246421 40.62828503 14.2292747 40.45141602 19.32446289 C39.8058508 26.4349026 38.8496388 32.3348051 33.42797852 37.33618164 C24.53722214 44.12165873 14.27371487 45.72272184 3.36547852 45.64868164 C2.4939917 45.64304199 1.62250488 45.63740234 0.72460938 45.6315918 C-7.40368508 45.4793229 -15.18445467 45.14013939 -21.82202148 40.02368164 C-26.63435466 32.83221746 -28.50300288 22.84844914 -27.82202148 14.33618164 C-29.47202148 14.33618164 -31.12202148 14.33618164 -32.82202148 14.33618164 C-32.82202148 13.67618164 -32.82202148 13.01618164 -32.82202148 12.33618164 C-31.17202148 12.33618164 -29.52202148 12.33618164 -27.82202148 12.33618164 C-27.66733398 10.94399414 -27.66733398 10.94399414 -27.50952148 9.52368164 C-26.77748948 6.1297151 -26.40479454 5.44722537 -23.82202148 3.33618164 C-16.35108208 -0.31427229 -8.12318219 -0.09702978 0 0 Z M-22.48681641 6.75317383 C-25.5649275 10.40255622 -25.18625166 14.83959451 -24.82202148 19.33618164 C-24.47425038 21.91845056 -24.08880689 24.46101409 -23.63452148 27.02368164 C-23.4140918 28.28567383 -23.19366211 29.54766602 -22.96655273 30.84790039 C-21.41094073 35.58906599 -18.89093261 37.90637969 -14.84936523 40.69946289 C-2.91387947 46.12062745 12.0582746 44.37078285 24.23266602 40.60180664 C29.16369175 38.48290434 33.27826544 36.33156087 35.49047852 31.27368164 C35.79598633 30.60208008 36.10149414 29.93047852 36.41625977 29.23852539 C37.91762232 25.48896865 38.367749 22.48652069 38.42797852 18.46118164 C38.46665039 16.91817383 38.46665039 16.91817383 38.50610352 15.34399414 C38.12442086 11.8452365 37.36176652 10.08613691 35.17797852 7.33618164 C32.86120431 5.93125477 32.86120431 5.93125477 30.24047852 5.08618164 C29.38583008 4.77165039 28.53118164 4.45711914 27.65063477 4.13305664 C20.8993131 1.95727525 14.31212374 2.11416956 7.27148438 2.09594727 C5.01532463 2.08628801 2.76009483 2.05526437 0.50415039 2.02368164 C-11.74840256 1.66176661 -11.74840256 1.66176661 -22.48681641 6.75317383 Z " fill="#F8F1EE" transform="translate(149.822021484375,211.663818359375)"/>
<path d="M0 0 C1.95969727 -0.0309375 1.95969727 -0.0309375 3.95898438 -0.0625 C12.7977487 -0.09808637 21.00521814 0.08532015 28.1875 5.6875 C30.0625 8.25 30.0625 8.25 30.0625 12.25 C31.7125 12.25 33.3625 12.25 35.0625 12.25 C35.0625 12.91 35.0625 13.57 35.0625 14.25 C33.4125 14.25 31.7625 14.25 30.0625 14.25 C30.02511719 14.98863281 29.98773438 15.72726563 29.94921875 16.48828125 C29.40991445 24.8104869 28.74061037 33.10324846 24.125 40.25 C13.45825989 47.21603436 -2.16708362 46.62068795 -14.38671875 44.7109375 C-23.09214372 42.50119225 -31.45361638 39.0564727 -36.25 31.0625 C-37.29020798 26.80710374 -37.08981713 22.60796239 -36.9375 18.25 C-35.03972047 21.09666929 -34.57945066 22.39111345 -34 25.625 C-32.87749583 30.85161577 -32.87749583 30.85161577 -29.9375 35.25 C-17.2222576 43.35655789 -1.68855332 44.2172409 12.8125 41.0625 C17.48441081 39.65006185 20.40404441 38.5378316 23.0625 34.25 C25.60097341 26.7178084 27.45453274 18.18726362 26.0625 10.25 C23.30039872 6.02053242 20.49318732 4.77788484 15.65820312 3.64916992 C9.91738879 2.76634153 4.10703682 2.92324179 -1.6875 2.9375 C-3.62882812 2.91333008 -3.62882812 2.91333008 -5.609375 2.88867188 C-14.58768516 2.88414652 -25.04962621 2.93177987 -32.5625 8.5625 C-35.08393114 11.4156984 -36.08067006 13.56563126 -36.9375 17.25 C-37.2675 17.25 -37.5975 17.25 -37.9375 17.25 C-38.40820034 13.29611718 -38.12584759 11.55378644 -36 8.125 C-26.98253334 -1.55290084 -12.05115163 0.04742214 0 0 Z " fill="#F8F0EC" transform="translate(242.9375,211.75)"/>
<path d="M0 0 C0.66 0 1.32 0 2 0 C2.66 1.98 3.32 3.96 4 6 C4.33 4.35 4.66 2.7 5 1 C7.64 1.99 10.28 2.98 13 4 C12.39827609 17.63907525 6.67675916 29.32324084 -3 39 C-3.99 39 -4.98 39 -6 39 C-5.62834815 33.30785853 -5.24539611 27.7014005 -4 22.125 C-2.81898927 16.78440002 -2.58323303 11.45813224 -2.34375 6.00390625 C-2 3 -2 3 0 0 Z " fill="#C6725A" transform="translate(279,235)"/>
<path d="M0 0 C1.02478577 0.97458408 2.02907514 1.97174666 3 3 C-8.03459253 9.21472671 -18.93177343 14.14843833 -31 18 C-31.1875 14.625 -31.1875 14.625 -31 11 C-30.01 10.34 -29.02 9.68 -28 9 C-28.7763932 5.9254644 -28.7763932 5.9254644 -31 4 C-21.19542906 -3.60354481 -11.53986367 -4.9024246 0 0 Z " fill="#2476D8" transform="translate(283,354)"/>
<path d="M0 0 C2.67133905 1.59357746 4.58265121 3.01772006 6.48828125 5.484375 C6.23828125 7.734375 6.23828125 7.734375 5.48828125 9.484375 C-3.51171875 6.484375 -3.51171875 6.484375 -6.42578125 5.40625 C-14.60695528 2.96225371 -22.66555425 3.86779984 -30.29296875 7.51171875 C-32.70394327 8.56864244 -34.90564475 9.13184102 -37.51171875 9.484375 C-38.51171875 8.484375 -38.51171875 8.484375 -39.07421875 6.234375 C-38.51171875 3.484375 -38.51171875 3.484375 -36.9375 2.11328125 C-25.2795394 -5.37001917 -12.5600308 -5.62856152 0 0 Z " fill="#090705" transform="translate(249.51171875,197.515625)"/>
<path d="M0 0 C-2.66452504 2.66452504 -5.36848418 3.37429964 -9 4 C-9.99 3.98710937 -10.98 3.97421875 -12 3.9609375 C-15.58178978 3.93559465 -18.53356013 4.05839494 -22 5 C-24.59459598 7.48948968 -24.59459598 7.48948968 -26.8125 10.5625 C-29.79324058 14.31277818 -31.1283022 15.80413268 -35.859375 16.8671875 C-43.62412041 17.26948705 -50.20905121 15.75183111 -57 12 C-58.51077972 11.39110227 -60.0316226 10.80644065 -61.5625 10.25 C-62.696875 9.8375 -63.83125 9.425 -65 9 C-65 8.34 -65 7.68 -65 7 C-61.77272455 7.47228421 -58.79936673 8.06435407 -55.6875 9.0625 C-47.58113782 11.12343954 -43.23038878 10.3996549 -35.9375 6.125 C-24.70656939 -0.39948696 -12.81063625 -0.43672624 0 0 Z " fill="#E0E0E0" transform="translate(239,365)"/>
<path d="M0 0 C1.75 0.0625 1.75 0.0625 4 1 C5.00460767 2.74996175 6.00462265 4.50373915 6.9375 6.29296875 C8.47666337 8.76581579 10.44164095 9.68962097 13 11 C14.68477344 12.31037934 16.35648543 13.63823078 18 15 C17.86328125 16.87109375 17.86328125 16.87109375 17 19 C14.41796875 20.16015625 14.41796875 20.16015625 11.1875 21.0625 C7.08619755 22.22645063 4.36272605 23.42507094 1 26 C0.01 26 -0.98 26 -2 26 C-3.21977329 23.56045342 -3.20153813 21.84694151 -3.25 19.125 C-3.27578125 18.26132812 -3.3015625 17.39765625 -3.328125 16.5078125 C-2.93707489 13.51907235 -1.88451553 12.29795516 0 10 C0.91681587 6.33273652 1.24506944 3.59686728 0 0 Z " fill="#A6A6A6" transform="translate(252,330)"/>
<path d="M0 0 C1.27037109 0.43119141 1.27037109 0.43119141 2.56640625 0.87109375 C6.00716458 2.00235559 9.45949116 3.05176373 12.9375 4.0625 C14.10152344 4.40410156 15.26554688 4.74570312 16.46484375 5.09765625 C19.98057572 6.08037618 19.98057572 6.08037618 23.59765625 6.41015625 C27.35786249 7.06204046 29.39010214 8.20721825 32.5 10.375 C36.58669914 13.12013446 40.40263725 15.26321852 45 17 C45 17.33 45 17.66 45 18 C38.0420635 18.21431016 31.69924272 17.441304 24.875 16.125 C23.92496094 15.95097656 22.97492188 15.77695312 21.99609375 15.59765625 C16.90238615 14.64391072 11.95358416 13.52312421 7 12 C7 10.02 7 8.04 7 6 C6.34 6 5.68 6 5 6 C5 5.34 5 4.68 5 4 C2.525 3.01 2.525 3.01 0 2 C0 1.34 0 0.68 0 0 Z " fill="#664D27" transform="translate(138,362)"/>
<path d="M0 0 C5.6562766 1.74337292 7.35055849 4.83343122 10.296875 9.74609375 C18.91277109 26.20719797 21.1874169 44.43810542 21.18530273 62.73828125 C21.18751627 64.89081845 21.2058011 67.04286382 21.22460938 69.1953125 C21.22753905 70.56510243 21.22952669 71.93489476 21.23046875 73.3046875 C21.23457764 74.54202637 21.23868652 75.77936523 21.24291992 77.05419922 C21 80 21 80 19 82 C17.77603516 81.54560547 17.77603516 81.54560547 16.52734375 81.08203125 C3.03561904 76.31074667 -10.89689154 73.35051808 -25 71 C-25 64.07 -25 57.14 -25 50 C-24.67 50 -24.34 50 -24 50 C-23.97421875 50.95261719 -23.9484375 51.90523437 -23.921875 52.88671875 C-23.86515625 54.14097656 -23.8084375 55.39523438 -23.75 56.6875 C-23.70359375 57.92886719 -23.6571875 59.17023438 -23.609375 60.44921875 C-22.89814812 64.59348307 -22.16287655 66.23563581 -19 69 C-16.239855 69.75867087 -13.86974246 70.23207131 -11.0625 70.5625 C-5.46937648 71.3660546 -0.26070697 72.39851952 5.125 74.1875 C9.66921386 75.67945994 13.23834143 76.54109756 18 76 C20.650279 73.349721 19.31121147 66.01671899 19.3190918 62.47436523 C19.05993822 41.40935897 15.54564628 19.62556143 2 3 C1.34 2.01 0.68 1.02 0 0 Z " fill="#838A8C" transform="translate(259,105)"/>
<path d="M0 0 C4.28768349 3.01960704 7.40469386 5.98778418 9.80078125 10.67578125 C8.80078125 13.67578125 8.80078125 13.67578125 6.42578125 15.42578125 C2.24874887 16.86613724 -0.21123468 16.62362955 -4.51953125 16.05078125 C-7.58996613 15.73787069 -10.54789368 15.60134146 -13.62890625 15.55078125 C-14.60408203 15.52918945 -15.57925781 15.50759766 -16.58398438 15.48535156 C-18.55376277 15.44611039 -20.52397415 15.42419303 -22.49414062 15.42089844 C-27.19314488 15.29758657 -29.49697945 15.20289636 -33.34765625 12.3125 C-35.19921875 9.67578125 -35.19921875 9.67578125 -35.44921875 6.73828125 C-33.31485255 1.50908406 -29.3727342 -1.26161119 -24.38671875 -3.69921875 C-15.67685092 -5.40703597 -7.67472946 -4.62119589 0 0 Z M-30.26171875 4.36328125 C-30.90109375 5.12640625 -31.54046875 5.88953125 -32.19921875 6.67578125 C-30.94945119 10.32894796 -30.52823122 11.45643961 -27.19921875 13.67578125 C-23.93231796 13.96966554 -23.93231796 13.96966554 -20.1953125 13.90625 C-19.1766787 13.90556267 -19.1766787 13.90556267 -18.13746643 13.90486145 C-16.70433806 13.90184455 -15.27121281 13.89397503 -13.83813477 13.8815918 C-11.64132106 13.86331953 -9.4449287 13.86108231 -7.24804688 13.86132812 C-0.52023602 14.23919122 -0.52023602 14.23919122 5.80078125 12.67578125 C5.06502871 8.08992638 2.63943455 6.18286297 -0.80859375 3.29296875 C-9.56236229 -2.62869821 -22.37504582 -3.54586084 -30.26171875 4.36328125 Z " fill="#0F0B09" transform="translate(173.19921875,224.32421875)"/>
<path d="M0 0 C2.9599561 2.17152535 4.75002319 4.13914956 6.73046875 7.26953125 C6.80970009 10.59724737 6.08989849 11.82760944 4.00292969 14.39355469 C1.20124943 16.70641579 -0.10457911 16.73986352 -3.69140625 16.66015625 C-5.22861328 16.64082031 -5.22861328 16.64082031 -6.796875 16.62109375 C-8.39208984 16.57082031 -8.39208984 16.57082031 -10.01953125 16.51953125 C-11.09847656 16.50148437 -12.17742187 16.4834375 -13.2890625 16.46484375 C-15.95011913 16.4177454 -18.60937379 16.35198725 -21.26953125 16.26953125 C-21.26953125 15.93953125 -21.26953125 15.60953125 -21.26953125 15.26953125 C-20.67938232 15.25494873 -20.0892334 15.24036621 -19.48120117 15.2253418 C-16.80581896 15.15084281 -14.13168233 15.0541913 -11.45703125 14.95703125 C-10.52826172 14.93447266 -9.59949219 14.91191406 -8.64257812 14.88867188 C-7.74990234 14.85322266 -6.85722656 14.81777344 -5.9375 14.78125 C-5.11531982 14.75506592 -4.29313965 14.72888184 -3.44604492 14.7019043 C-0.80337081 14.17692664 0.13827826 13.41687432 1.73046875 11.26953125 C1.65424613 8.22062646 1.23021276 6.78849619 -0.89453125 4.58203125 C-7.33008131 1.02554306 -13.22195397 0.74513366 -20.26953125 2.26953125 C-25.5943972 4.14343878 -29.65605363 6.86560539 -33.26953125 11.26953125 C-33.26953125 12.25953125 -33.26953125 13.24953125 -33.26953125 14.26953125 C-32.60953125 14.59953125 -31.94953125 14.92953125 -31.26953125 15.26953125 C-31.26953125 15.92953125 -31.26953125 16.58953125 -31.26953125 17.26953125 C-34.20703125 16.45703125 -34.20703125 16.45703125 -37.26953125 15.26953125 C-37.59953125 14.27953125 -37.92953125 13.28953125 -38.26953125 12.26953125 C-34.59693933 4.92434741 -28.36249949 0.89127338 -20.95703125 -2.04296875 C-13.56697015 -3.42077675 -6.67256115 -3.89347383 0 0 Z " fill="#100D0B" transform="translate(248.26953125,222.73046875)"/>
<path d="M0 0 C1.32 0 2.64 0 4 0 C4.08636719 1.01578125 4.17273438 2.0315625 4.26171875 3.078125 C5.21303735 12.86942546 6.39775581 23.68241379 13.625 31.0625 C15.01414427 32.19574927 16.40787948 33.32349062 17.8125 34.4375 C19.64443328 36.84793852 19.19479285 39.07810726 19 42 C14.92039957 41.4991562 13.46904517 39.59614177 11 36.4375 C7.72096773 32.1485988 4.98726426 28.02096235 3 23 C2.70222656 22.25363281 2.40445313 21.50726563 2.09765625 20.73828125 C-0.31645227 13.8297034 -0.30715555 7.25797198 0 0 Z " fill="#E7A581" transform="translate(101,232)"/>
<path d="M0 0 C0.99 0.33 1.98 0.66 3 1 C2.773125 1.70125 2.54625 2.4025 2.3125 3.125 C1.83693388 7.50020835 3.95439027 10.29400518 6.1875 13.9375 C7.37897934 16.96202448 7.12352488 19.78835313 7 23 C1.65439518 22.73271976 -1.08029827 20.6490223 -5.09765625 17.43359375 C-7.26982408 15.79666235 -9.40722435 14.81024239 -12 14 C-8.59949622 9.21410579 -8.59949622 9.21410579 -5.375 8.0625 C-2.66063716 7.17635256 -2.66063716 7.17635256 -1.75 3.9375 C-1.37875 2.4834375 -1.37875 2.4834375 -1 1 C-0.67 0.67 -0.34 0.34 0 0 Z " fill="#A8A8A8" transform="translate(135,332)"/>
<path d="M0 0 C1.32 0 2.64 0 4 0 C3.67023059 13.5505248 -2.46090452 25.46090452 -12 35 C-12.99 35 -13.98 35 -15 35 C-14.505 30.545 -14.505 30.545 -14 26 C-13.23945313 25.78085937 -12.47890625 25.56171875 -11.6953125 25.3359375 C-6.58215572 22.80159022 -5.03330176 17.0832544 -3 12 C-1.80021263 8.03353877 -0.82083571 4.06097669 0 0 Z " fill="#E7A582" transform="translate(288,239)"/>
<path d="M0 0 C10.625 0.875 10.625 0.875 14 2 C14 5.96 14 9.92 14 14 C7.07 13.505 7.07 13.505 0 13 C0 8.71 0 4.42 0 0 Z " fill="#AFB8BC" transform="translate(218,159)"/>
<path d="M0 0 C1.21945313 0.16242188 2.43890625 0.32484375 3.6953125 0.4921875 C9.75457479 1.16280589 15.78497561 1.14612147 21.875 1.125 C23.53595703 1.13080078 23.53595703 1.13080078 25.23046875 1.13671875 C32.20770796 1.12851988 39.06469585 0.76439832 46 0 C41.32886967 5.06814539 35.71084016 6.14662484 29.06640625 6.43359375 C26.89850464 6.4507053 24.73042284 6.45166943 22.5625 6.4375 C20.94118164 6.4674707 20.94118164 6.4674707 19.28710938 6.49804688 C12.50716826 6.49393533 6.78928178 5.75890106 1 2 C0.67 1.34 0.34 0.68 0 0 Z " fill="#F0F0F0" transform="translate(174,304)"/>
<path d="M0 0 C0.7734375 -0.00515625 1.546875 -0.0103125 2.34375 -0.015625 C4.5 0.25 4.5 0.25 7.5 2.25 C8.21942818 4.97672164 8.75683513 7.53956062 9.1875 10.3125 C9.31487549 11.07876709 9.44225098 11.84503418 9.57348633 12.63452148 C10.4051034 17.89585203 10.79078331 22.91897266 10.5 28.25 C5.80908671 23.55908671 6.897299 15.43651298 6.5 9.25 C1.88 9.25 -2.74 9.25 -7.5 9.25 C-7.5 6.94 -7.5 4.63 -7.5 2.25 C-4.377998 0.16866533 -3.56733011 -0.0237822 0 0 Z " fill="#1D1A18" transform="translate(197.5,226.75)"/>
<path d="M0 0 C8.45828013 1.85118942 13.04096987 3.92099926 19.0625 10.125 C20.99569113 12.14161645 20.99569113 12.14161645 23.75 13.625 C24.4925 14.07875 25.235 14.5325 26 15 C26 15.66 26 16.32 26 17 C16.41186264 14.7384246 7.80005115 10.29793681 -1 6 C-1.042721 4.33388095 -1.04063832 2.66617115 -1 1 C-0.67 0.67 -0.34 0.34 0 0 Z " fill="#58515A" transform="translate(112,354)"/>
<path d="M0 0 C3 1.6875 3 1.6875 6 4 C6.375 6.75 6.375 6.75 6 9 C5.34 8.67 4.68 8.34 4 8 C3.34 9.32 2.68 10.64 2 12 C-4.1105424 12.11269443 -9.95170514 11.89604368 -16 11 C-12.53726925 8.13865759 -8.99313724 5.63425466 -5.1875 3.25 C-4.21167969 2.63640625 -3.23585937 2.0228125 -2.23046875 1.390625 C-1.49441406 0.93171875 -0.75835937 0.4728125 0 0 Z " fill="#BCBCBC" transform="translate(238,331)"/>
<path d="M0 0 C0.33 0.66 0.66 1.32 1 2 C0.22265625 3.69921875 0.22265625 3.69921875 -0.9375 5.6875 C-3.83107668 11.19527354 -3.44382396 16.04422618 -2 22 C-6.64849515 24.3992233 -10.91086074 24.19957409 -16 24 C-14.125 18.25 -14.125 18.25 -13 16 C-12.34 16 -11.68 16 -11 16 C-10.67 16.99 -10.34 17.98 -10 19 C-9.690625 17.2984375 -9.690625 17.2984375 -9.375 15.5625 C-7.89490985 9.54561179 -4.35490981 4.35490981 0 0 Z " fill="#F5F5F5" transform="translate(251,339)"/>
<path d="M0 0 C1.4783226 2.95664519 1.06032783 5.74229737 1 9 C1.61488281 8.90460938 2.22976562 8.80921875 2.86328125 8.7109375 C3.67152344 8.60007812 4.47976562 8.48921875 5.3125 8.375 C6.11300781 8.25898438 6.91351563 8.14296875 7.73828125 8.0234375 C10 8 10 8 13 10 C15.21582589 10.31560324 15.21582589 10.31560324 17.5625 10.25 C18.34753906 10.25515625 19.13257813 10.2603125 19.94140625 10.265625 C22.22290968 10.18429262 22.22290968 10.18429262 24 8 C26.3828125 7.8046875 26.3828125 7.8046875 29.125 7.875 C30.03507812 7.89304687 30.94515625 7.91109375 31.8828125 7.9296875 C32.58148438 7.95289063 33.28015625 7.97609375 34 8 C34 5.36 34 2.72 34 0 C34.66 0.33 35.32 0.66 36 1 C36.1953125 7.0546875 36.1953125 7.0546875 36 9 C34 11 34 11 32.01171875 11.01953125 C31.24472656 10.95121094 30.47773438 10.88289063 29.6875 10.8125 C25.77627697 10.69359882 25.32287932 10.70647334 22.25 13.5 C21.13625 14.7375 21.13625 14.7375 20 16 C17.5 16.625 17.5 16.625 15 16 C14.2575 15.175 13.515 14.35 12.75 13.5 C10.34343122 10.80462477 10.34343122 10.80462477 7.7890625 10.80859375 C6.20305787 10.89328332 4.61711734 10.97918355 3.03125 11.06640625 C1 11 1 11 -1.125 9.375 C-2.28306309 6.23168589 -1.85329451 4.19985442 -1 1 C-0.67 0.67 -0.34 0.34 0 0 Z " fill="#793529" transform="translate(179,269)"/>
<path d="M0 0 C10.16547249 -0.68582648 17.7602554 0.70244437 27 5 C27 5.66 27 6.32 27 7 C26.39639648 7.04487549 25.79279297 7.08975098 25.17089844 7.13598633 C9.96751044 8.19785295 9.96751044 8.19785295 -4.85546875 11.51171875 C-7 12 -7 12 -10 11 C-3.35970523 8.01072641 2.92316663 5.50986178 10.13671875 4.359375 C12.00780004 4.17899912 12.00780004 4.17899912 13 3 C8.71 2.34 4.42 1.68 0 1 C0 0.67 0 0.34 0 0 Z " fill="#595959" transform="translate(191,131)"/>
<path d="M0 0 C0 0.66 0 1.32 0 2 C-1.07894531 2.23187012 -2.15789062 2.46374023 -3.26953125 2.70263672 C-7.30286067 3.56978664 -11.3358104 4.43869152 -15.36865234 5.30810547 C-17.10845935 5.6829275 -18.84836663 6.0572844 -20.58837891 6.43115234 C-23.10085644 6.97108305 -25.61295907 7.5127296 -28.125 8.0546875 C-29.27705933 8.301689 -29.27705933 8.301689 -30.45239258 8.55368042 C-35.32818138 9.60777055 -40.16612048 10.76755254 -45 12 C-45 11.34 -45 10.68 -45 10 C-31.6684051 3.33420255 -14.92118351 -0.57389167 0 0 Z " fill="#060505" transform="translate(217,140)"/>
<path d="M0 0 C1.89777953 2.84666929 2.35804934 4.14111345 2.9375 7.375 C4.06000417 12.60161577 4.06000417 12.60161577 7 17 C20.42994155 25.56221181 35.74166778 25.14543479 51 23 C50.505 24.485 50.505 24.485 50 26 C39.00568497 30.14743916 23.18831064 27.31499081 12.7421875 23.0859375 C7.56113123 20.73438797 3.665779 17.77629834 0.6875 12.8125 C-0.35270798 8.55710374 -0.15231713 4.35796239 0 0 Z " fill="#FAEEE8" transform="translate(206,230)"/>
<path d="M0 0 C0 1.98 0 3.96 0 6 C-8.56418259 9.67036397 -18.631172 12.37618621 -28 12 C-21.41930661 6.51608884 -8.75619841 0 0 0 Z " fill="#033D82" transform="translate(248,367)"/>
<path d="M0 0 C5.6562766 1.74337292 7.35055849 4.83343122 10.296875 9.74609375 C18.91277109 26.20719797 21.1874169 44.43810542 21.18530273 62.73828125 C21.18751627 64.89081845 21.2058011 67.04286382 21.22460938 69.1953125 C21.22753905 70.56510243 21.22952669 71.93489476 21.23046875 73.3046875 C21.23457764 74.54202637 21.23868652 75.77936523 21.24291992 77.05419922 C21 80 21 80 19 82 C19.0314209 80.87078125 19.0314209 80.87078125 19.06347656 79.71875 C19.69902793 53.2025815 19.49875487 24.47750046 2 3 C1.34 2.01 0.68 1.02 0 0 Z " fill="#626566" transform="translate(259,105)"/>
<path d="M0 0 C0.598125 0.66386719 1.19625 1.32773438 1.8125 2.01171875 C6.54029989 4.96079981 10.57501871 4.2243015 16 3.8125 C18.15102702 3.68204998 20.30206902 3.55184671 22.453125 3.421875 C23.54044922 3.34904297 24.62777344 3.27621094 25.74804688 3.20117188 C28.86861172 3.00812792 31.98481662 2.87350877 35.109375 2.765625 C36.53636719 2.71378052 36.53636719 2.71378052 37.9921875 2.66088867 C39.79411416 2.59660251 41.59620322 2.53668019 43.3984375 2.48168945 C44.21054688 2.447771 45.02265625 2.41385254 45.859375 2.37890625 C46.56545898 2.3538501 47.27154297 2.32879395 47.99902344 2.30297852 C50.30465141 1.95387111 51.9762822 1.13472343 54 0 C53.34 1.65 52.68 3.3 52 5 C46.36255972 5.28837189 40.72494906 5.57305734 35.0871582 5.85449219 C33.17369702 5.95051163 31.26028401 6.04749641 29.34692383 6.14550781 C8.9452496 7.18928963 8.9452496 7.18928963 0 7 C0 4.69 0 2.38 0 0 Z " fill="#90989B" transform="translate(162,167)"/>
<path d="M0 0 C0.65355469 0.13277344 1.30710938 0.26554687 1.98046875 0.40234375 C6.0780638 1.21338132 10.14637945 1.36192119 14.3125 1.5625 C15.14845703 1.60568359 15.98441406 1.64886719 16.84570312 1.69335938 C18.89696935 1.79885307 20.9484648 1.89987315 23 2 C23.33 2.66 23.66 3.32 24 4 C18.55239483 7.70900778 14.57540192 8.94868983 8 8 C4.91985591 7.18205582 1.96084058 6.17593669 -1 5 C-0.34 4.34 0.32 3.68 1 3 C0.34 2.34 -0.32 1.68 -1 1 C-0.67 0.67 -0.34 0.34 0 0 Z " fill="#0A2122" transform="translate(179,368)"/>
<path d="M0 0 C2.64 0.33 5.28 0.66 8 1 C8 5.60147126 5.10228152 7.80688592 2 11 C0.05341967 12.75806017 -1.93543443 14.37784133 -4 16 C-0.37 16.33 3.26 16.66 7 17 C7 17.33 7 17.66 7 18 C4.20880221 18.22114415 1.4178788 18.42743301 -1.375 18.625 C-2.1690625 18.68945312 -2.963125 18.75390625 -3.78125 18.8203125 C-5.85028224 18.96058587 -7.92625536 18.98758237 -10 19 C-10.66 18.34 -11.32 17.68 -12 17 C-9.32521756 15.3372974 -7.0004856 14.00016187 -4 13 C-1.90774499 8.9385638 -1.04905942 4.42103614 0 0 Z " fill="#0D1414" transform="translate(230,347)"/>
<path d="M0 0 C0.66 0 1.32 0 2 0 C2 3.3 2 6.6 2 10 C3.22976562 9.33291016 3.22976562 9.33291016 4.484375 8.65234375 C5.56203125 8.08644531 6.6396875 7.52054687 7.75 6.9375 C8.81734375 6.36902344 9.8846875 5.80054688 10.984375 5.21484375 C14.02593537 3.98955194 15.04893565 3.74651393 18 5 C14.78564699 7.14290201 11.54478814 8.48080508 8 10 C7.01 10.66 6.02 11.32 5 12 C5.99 12.99 6.98 13.98 8 15 C7.34 16.32 6.68 17.64 6 19 C5.34 19 4.68 19 4 19 C4 21.31 4 23.62 4 26 C3.34 26 2.68 26 2 26 C2.33 23.36 2.66 20.72 3 18 C3.66 18 4.32 18 5 18 C5 17.01 5 16.02 5 15 C3.989375 15.680625 2.97875 16.36125 1.9375 17.0625 C-1.95377757 19.3257941 -4.60993163 19.07511878 -9 18 C-9 17.67 -9 17.34 -9 17 C-5.7 16.34 -2.4 15.68 1 15 C0.67 14.319375 0.34 13.63875 0 12.9375 C-1.5320775 8.43702233 -1.49937498 4.49812495 0 0 Z " fill="#111317" transform="translate(248,346)"/>
<path d="M0 0 C0 0.33 0 0.66 0 1 C-0.61488281 1.19335938 -1.22976563 1.38671875 -1.86328125 1.5859375 C-3.07564453 1.97652344 -3.07564453 1.97652344 -4.3125 2.375 C-5.51326172 2.75785156 -5.51326172 2.75785156 -6.73828125 3.1484375 C-9.22724528 3.98831811 -9.22724528 3.98831811 -12 6 C-11.67 6.845625 -11.34 7.69125 -11 8.5625 C-11 12 -11 12 -12.64453125 13.88671875 C-14.71404053 15.66537808 -16.83337318 17.34191084 -19 19 C-19.66 19.66 -20.32 20.32 -21 21 C-21.1875 17.625 -21.1875 17.625 -21 14 C-20.01 13.34 -19.02 12.68 -18 12 C-18.7763932 8.9254644 -18.7763932 8.9254644 -21 7 C-14.20724862 1.73215199 -8.77893975 -0.35832407 0 0 Z " fill="#054FA8" transform="translate(273,351)"/>
<path d="M0 0 C3.06950269 2.98328071 3.61473386 5.9025018 3.765625 9.9765625 C3.49164366 15.68320246 2.61671759 21.54506174 0.265625 26.7890625 C-0.724375 27.1190625 -1.714375 27.4490625 -2.734375 27.7890625 C-2.5178125 27.20640625 -2.30125 26.62375 -2.078125 26.0234375 C0.346539 18.88414907 1.93057763 10.94768622 -0.44921875 3.57421875 C-2.18478074 1.16342291 -3.83727385 0.60922538 -6.609375 -0.3984375 C-7.47304687 -0.72199219 -8.33671875 -1.04554688 -9.2265625 -1.37890625 C-13.59398351 -2.82791042 -17.40898512 -3.3747218 -22.03125 -3.52734375 C-23.23652344 -3.56923828 -24.44179687 -3.61113281 -25.68359375 -3.65429688 C-26.93785156 -3.69361328 -28.19210938 -3.73292969 -29.484375 -3.7734375 C-31.38896484 -3.83821289 -31.38896484 -3.83821289 -33.33203125 -3.90429688 C-36.46603865 -4.01033472 -39.60012433 -4.11239808 -42.734375 -4.2109375 C-42.734375 -4.5409375 -42.734375 -4.8709375 -42.734375 -5.2109375 C-10.41073948 -7.26875955 -10.41073948 -7.26875955 0 0 Z " fill="#FAECE5" transform="translate(186.734375,218.2109375)"/>
<path d="M0 0 C0.33 0 0.66 0 1 0 C1 5.61 1 11.22 1 17 C-1.578125 17.391875 -4.15625 17.78375 -6.8125 18.1875 C-14.55700208 19.42423453 -22.074478 21.18673514 -29.62817383 23.28588867 C-33.73974523 24.42747421 -37.76575322 25.39318119 -42 26 C-42.66 24.35 -43.32 22.7 -44 21 C-42.7625 21.2475 -41.525 21.495 -40.25 21.75 C-35.04688079 22.33081331 -31.36638242 20.92500117 -26.53515625 19.1171875 C-21.48736995 17.52197548 -16.37487164 16.78352656 -11.14282227 16.04003906 C-5.67306973 15.47777264 -5.67306973 15.47777264 -1 13 C-0.29327794 9.89069059 -0.29327794 9.89069059 -0.25 6.375 C-0.16492188 4.59222656 -0.16492188 4.59222656 -0.078125 2.7734375 C-0.03945312 1.40058594 -0.03945312 1.40058594 0 0 Z " fill="#8A9294" transform="translate(158,160)"/>
<path d="M0 0 C1.05356689 0.21221191 1.05356689 0.21221191 2.12841797 0.42871094 C10.18478084 1.92652844 17.94299138 2.30318749 26.125 2.25 C27.92130859 2.26160156 27.92130859 2.26160156 29.75390625 2.2734375 C36.03699776 2.25967388 41.813257 1.90222769 47.90966797 0.33105469 C50.24024973 -0.03804936 51.77242836 0.28037148 54 1 C46.87805306 7.13624235 34.83376395 5.15619672 25.9375 5.125 C24.83083984 5.12886719 23.72417969 5.13273437 22.58398438 5.13671875 C17.51181595 5.13072682 12.44209935 5.05628364 7.37890625 4.7421875 C6.60232666 4.69690918 5.82574707 4.65163086 5.02563477 4.60498047 C2.29670018 3.78995095 1.48135398 2.35990335 0 0 Z " fill="#9E9E9E" transform="translate(170,301)"/>
<path d="M0 0 C1.30245593 2.14522154 2.01434368 3.52665842 1.9375 6.0625 C0.58076644 8.86641603 -1.22644871 9.71469574 -4 11 C-4.66 10.67 -5.32 10.34 -6 10 C-4.68 8.68 -3.36 7.36 -2 6 C-6.06452598 6.42784484 -9.69487568 6.91056701 -13.625 8.0625 C-16.93028632 8.98063509 -19.59212474 9.16623782 -23 9 C-19.62936107 6.20094074 -16.07330538 4.54609251 -12.0625 2.8125 C-10.85722656 2.28269531 -9.65195313 1.75289062 -8.41015625 1.20703125 C-5.29252376 0.10353934 -3.25469783 -0.27791537 0 0 Z " fill="#5B5A5A" transform="translate(229,146)"/>
<path d="M0 0 C17.43782899 2.02023628 17.43782899 2.02023628 24 9 C18.1111566 9.21221057 13.16709687 8.55320433 7.5 7 C6.77296875 6.80921875 6.0459375 6.6184375 5.296875 6.421875 C3.52893469 5.95662755 1.76411067 5.47956407 0 5 C0 3.35 0 1.7 0 0 Z " fill="#343339" transform="translate(145,369)"/>
<path d="M0 0 C-0.08378906 0.60328125 -0.16757813 1.2065625 -0.25390625 1.828125 C-0.35574219 2.62734375 -0.45757812 3.4265625 -0.5625 4.25 C-0.66691406 5.03890625 -0.77132812 5.8278125 -0.87890625 6.640625 C-1.00027349 9.00532874 -0.69633257 10.7511037 0 13 C-7.38461538 13.49230769 -7.38461538 13.49230769 -10.5 11 C-10.995 10.34 -11.49 9.68 -12 9 C-10.55536047 5.62917442 -8.75336875 3.41962708 -6 1 C-3 0 -3 0 0 0 Z " fill="#F2F1F1" transform="translate(153,224)"/>
<path d="M0 0 C4.7114682 1.08726189 8.1810022 1.88896154 11 6 C10.83849795 9.39154295 10.41703243 10.58296757 8 13 C5.31160615 13.26991906 2.70858064 13.08737357 0 13 C0.12568359 11.96939453 0.12568359 11.96939453 0.25390625 10.91796875 C0.35574219 10.01691406 0.45757812 9.11585938 0.5625 8.1875 C0.66691406 7.29417969 0.77132812 6.40085938 0.87890625 5.48046875 C1.15658709 2.86624428 1.15658709 2.86624428 0 0 Z " fill="#F9F9F9" transform="translate(240,224)"/>
<path d="M0 0 C8.43440131 0.26440129 15.37446149 1.29911788 23 5 C21.68 5.33 20.36 5.66 19 6 C19 6.66 19 7.32 19 8 C19.72445312 8.18175781 20.44890625 8.36351562 21.1953125 8.55078125 C26.46799057 9.92167755 31.25483705 11.30679941 36 14 C31.03914357 15.93389318 26.97255206 13.40229764 22.3125 11.53515625 C18.61251619 9.82042318 15.50534089 7.73526443 12.2109375 5.359375 C8.43494133 3.03773778 4.28279493 2.01928731 0 1 C0 0.67 0 0.34 0 0 Z " fill="#12110F" transform="translate(155,366)"/>
<path d="M0 0 C1.70662572 2.21861344 3.26945782 4.43305722 4.75 6.8125 C7.46596779 10.66012104 10.61055994 13.75211428 14 17 C15.33333333 18.33333333 16.66666667 19.66666667 18 21 C11.70338209 20.52775366 6.57570958 17.88603603 2.37890625 13.18359375 C-1 8.59861898 -1 8.59861898 -1 6 C-0.34 6 0.32 6 1 6 C0.67 4.02 0.34 2.04 0 0 Z " fill="#BDBDBD" transform="translate(149,343)"/>
<path d="M0 0 C-3 2 -3 2 -5.3671875 3.28125 C-8.50406094 5.32906055 -10.65418243 7.68916166 -13.125 10.5 C-18.52565661 16.60651751 -18.52565661 16.60651751 -21 19 C-21.99 18.67 -22.98 18.34 -24 18 C-23.41089844 17.56429688 -22.82179687 17.12859375 -22.21484375 16.6796875 C-19.95245511 14.88685122 -17.90384886 13.17272957 -16 11 C-15.79172045 7.63776466 -15.79172045 7.63776466 -17 5 C-11.30223306 0.65292985 -7.15406617 -0.74521523 0 0 Z " fill="#0866D6" transform="translate(277,352)"/>
<path d="M0 0 C2.97 0 5.94 0 9 0 C6.91084988 2.08915012 5.92508358 2.50667056 3.18359375 3.3671875 C2.04337769 3.73336182 2.04337769 3.73336182 0.88012695 4.10693359 C0.07406006 4.36039551 -0.73200684 4.61385742 -1.5625 4.875 C-6.56919709 6.48096821 -11.45144462 8.06472908 -16.1875 10.375 C-19.97651487 12.18713755 -22.83090576 12.35481653 -27 12 C-23.5925131 9.12600852 -19.85139153 7.50409564 -15.75 5.875 C-15.11964844 5.61074219 -14.48929688 5.34648437 -13.83984375 5.07421875 C-9.21497487 3.21861963 -4.96258891 2.45214699 0 2 C0 1.34 0 0.68 0 0 Z " fill="#040404" transform="translate(219,143)"/>
<path d="M0 0 C4.43181385 0.72050961 8.84527731 1.50342721 13.25 2.375 C14.47203125 2.60960937 15.6940625 2.84421875 16.953125 3.0859375 C20 4 20 4 22 7 C25.04856298 7.71871819 27.93414278 7.5920276 31 7 C34.06724457 4.68743996 34.06724457 4.68743996 36 2 C36.66 2.33 37.32 2.66 38 3 C34.05809156 8.79063295 34.05809156 8.79063295 29.328125 9.7265625 C27.96833217 9.72971632 26.6080243 9.69440091 25.25 9.625 C24.5384375 9.60606689 23.826875 9.58713379 23.09375 9.56762695 C17.22798254 9.28597913 13.04688283 7.78827784 8 5 C6.48922028 4.39110227 4.9683774 3.80644065 3.4375 3.25 C2.303125 2.8375 1.16875 2.425 0 2 C0 1.34 0 0.68 0 0 Z " fill="#D7D7D7" transform="translate(174,372)"/>
<path d="M0 0 C0.1953125 1.98567708 0.390625 3.97135417 0.5859375 5.95703125 C0.92665391 8.29988142 0.92665391 8.29988142 3 11 C1.56465159 11.2226746 0.12654475 11.42761906 -1.3125 11.625 C-2.11300781 11.74101562 -2.91351563 11.85703125 -3.73828125 11.9765625 C-6 12 -6 12 -9 10 C-8.44149846 6.43179569 -7.27801323 5.00428942 -4.5 2.75 C-3.8709375 2.22921875 -3.241875 1.7084375 -2.59375 1.171875 C-1 0 -1 0 0 0 Z " fill="#E9E8E7" transform="translate(223,227)"/>
<path d="M0 0 C1.32 0.66 2.64 1.32 4 2 C3.51421457 5.12290635 3.0013988 7.99580359 2 11 C1.93259135 12.56118428 1.91485544 14.1250252 1.9375 15.6875 C1.94652344 16.49574219 1.95554687 17.30398437 1.96484375 18.13671875 C1.97644531 18.75160156 1.98804687 19.36648437 2 20 C1.01 20 0.02 20 -1 20 C-2.06723961 16.53777385 -2.10173486 13.35960734 -2.0625 9.75 C-2.04896484 8.13351563 -2.04896484 8.13351563 -2.03515625 6.484375 C-2.02355469 5.66453125 -2.01195313 4.8446875 -2 4 C-2.66 3.67 -3.32 3.34 -4 3 C-2.68 2.01 -1.36 1.02 0 0 Z " fill="#CD785E" transform="translate(107,228)"/>
<path d="M0 0 C-3.0608176 3.0608176 -6.82196847 3.86724379 -11.05078125 4.125 C-13.93187071 4.125 -16.80467122 4.02487759 -19.68359375 3.921875 C-24.543649 3.81641268 -28.38493037 4.44545023 -33 6 C-29.85823738 1.93418955 -25.33108381 1.32304784 -20.51953125 0.65625 C-13.67761449 -0.05459849 -6.87278433 -0.10794949 0 0 Z " fill="#E6E6E6" transform="translate(239,365)"/>
<path d="M0 0 C13.935768 0.20999102 13.935768 0.20999102 17.8125 3.0625 C20.67246994 6.90303107 20.83940849 9.26255033 21 14 C20.278125 13.2575 19.55625 12.515 18.8125 11.75 C12.95789075 6.02549318 7.72981577 3.54501815 0 1 C0 0.67 0 0.34 0 0 Z " fill="#423B46" transform="translate(112,353)"/>
<path d="M0 0 C1.70840281 1.63412443 2.93453047 2.86906094 4 5 C5.64142963 6.0409066 7.30712215 7.04504326 9 8 C7.125 12.875 7.125 12.875 6 14 C3.66702567 14.04092937 1.33294775 14.04241723 -1 14 C-0.34 12.02 0.32 10.04 1 8 C0.01 7.67 -0.98 7.34 -2 7 C-1.34 4.69 -0.68 2.38 0 0 Z " fill="#DADADA" transform="translate(256,333)"/>
<path d="M0 0 C0.18175781 0.66386719 0.36351562 1.32773437 0.55078125 2.01171875 C1.89523291 6.73453613 3.14984737 10.92835339 6 15 C2.62985544 13.50728757 0.12782162 11.56479174 -2.625 9.125 C-3.40101563 8.44695312 -4.17703125 7.76890625 -4.9765625 7.0703125 C-6.89524597 5.10718076 -7.95194753 3.51307205 -9 1 C-5.91810344 0.08684546 -3.20344581 -0.04250011 0 0 Z " fill="#009CA6" transform="translate(163,347)"/>
<path d="M0 0 C7.10526316 4.57894737 7.10526316 4.57894737 9 7 C9 7.99 9 8.98 9 10 C6.47524538 11.26237731 4.68799534 11.09856404 1.875 11.0625 C0.96492187 11.05347656 0.05484375 11.04445312 -0.8828125 11.03515625 C-1.58148438 11.02355469 -2.28015625 11.01195312 -3 11 C-2.68289062 10.41734375 -2.36578125 9.8346875 -2.0390625 9.234375 C-0.63951811 6.22482841 -0.37817248 3.2774948 0 0 Z " fill="#F4F3F3" transform="translate(170,227)"/>
<path d="M0 0 C0.99 0 1.98 0 3 0 C3.66 1.32 4.32 2.64 5 4 C6.051875 3.29875 7.10375 2.5975 8.1875 1.875 C11.61750233 -0.08895295 11.61750233 -0.08895295 14.6875 0.625 C15.450625 1.07875 16.21375 1.5325 17 2 C17.763125 2.37125 18.52625 2.7425 19.3125 3.125 C19.869375 3.41375 20.42625 3.7025 21 4 C21 4.66 21 5.32 21 6 C19.83984375 5.98259766 19.83984375 5.98259766 18.65625 5.96484375 C12.66063636 5.91290155 6.92697017 6.08815844 1 7 C0.67 4.69 0.34 2.38 0 0 Z " fill="#9F9F9F" transform="translate(150,337)"/>
<path d="M0 0 C1.50539661 0.94983358 3.00420347 1.91011891 4.5 2.875 C5.3353125 3.40867187 6.170625 3.94234375 7.03125 4.4921875 C7.6809375 4.98976563 8.330625 5.48734375 9 6 C9 6.66 9 7.32 9 8 C5.04 9.98 5.04 9.98 1 12 C-1.10517651 9.43717643 -2.78884685 7.37845033 -3 4 C-2.04221117 2.63602847 -1.04445487 1.29880399 0 0 Z " fill="#C2C2C2" transform="translate(153,330)"/>
<path d="M0 0 C-2.57784846 2.64752004 -4.91648098 4.94432065 -8 7 C-7.67 7.99 -7.34 8.98 -7 10 C-10.50776784 11.60355101 -13.14354879 12.22036864 -17 12 C-15.51452441 8.49174913 -13.54563396 6.31741894 -10.75 3.75 C-10.00234375 3.04359375 -9.2546875 2.3371875 -8.484375 1.609375 C-5.44569346 -0.35907908 -3.55248945 -0.30801932 0 0 Z " fill="#0C0907" transform="translate(229,176)"/>
<path d="M0 0 C2.9375 2 2.9375 2 5 4 C2.75 5.625 2.75 5.625 0 7 C-0.6084375 6.690625 -1.216875 6.38125 -1.84375 6.0625 C-4.58799406 4.7102638 -6.24467611 4.97956265 -9.25 5.375 C-10.14203125 5.48585938 -11.0340625 5.59671875 -11.953125 5.7109375 C-12.62859375 5.80632812 -13.3040625 5.90171875 -14 6 C-9.8380222 0.40285744 -7.00323177 -0.60372688 0 0 Z " fill="#3A86E1" transform="translate(281,353)"/>
<path d="M0 0 C0.33 1.32 0.66 2.64 1 4 C-2.78756477 7.61139896 -2.78756477 7.61139896 -5 9 C-7.875 8.8125 -7.875 8.8125 -10 8 C-10 4 -10 4 -7.8125 1.75 C-4.81718319 -0.11375268 -3.44263129 -0.39344358 0 0 Z " fill="#626466" transform="translate(163,100)"/>
<path d="M0 0 C6.33333333 0.48717949 6.33333333 0.48717949 9.4375 2.875 C11 5 11 5 11 8 C8.875 8.75 8.875 8.75 6 9 C2.6875 7.375 2.6875 7.375 0 5 C-0.375 2.25 -0.375 2.25 0 0 Z " fill="#717677" transform="translate(229,100)"/>
<path d="M0 0 C-3.59491639 3.86038714 -7.97357448 6.66601416 -13.30078125 7.25390625 C-15.2024022 7.25052859 -17.10320865 7.1354851 -19 7 C-13.19892438 0.51644489 -8.31411109 -0.28669349 0 0 Z " fill="#65686A" transform="translate(229,373)"/>
<path d="M0 0 C5.5952381 0.5952381 5.5952381 0.5952381 8 3 C7.90745656 7.16445467 7.24187812 8.72862455 4.4375 11.875 C3.2309375 12.926875 3.2309375 12.926875 2 14 C2.33 11.36 2.66 8.72 3 6 C1.68 5.34 0.36 4.68 -1 4 C-1 1 -1 1 0 0 Z " fill="#F4F4F4" transform="translate(241,329)"/>
<path d="M0 0 C0.66 0 1.32 0 2 0 C3.54586876 3.09173752 3.29359521 5.59429552 3 9 C1 11.4375 1 11.4375 -1 13 C-4 12 -4 12 -5.75 10.1875 C-8.58876812 7.42758655 -11.51805806 5.87489181 -15 4 C-15 3.34 -15 2.68 -15 2 C-12.03108238 2.45675656 -10.6296845 3.26566112 -8.125 5.0625 C-4.68695241 7.19408951 -2.95793831 7.37694651 1 7 C0.67 4.69 0.34 2.38 0 0 Z " fill="#29252B" transform="translate(141,348)"/>
<path d="M0 0 C1.423125 0.6496875 1.423125 0.6496875 2.875 1.3125 C7.45697862 3.28830187 12.20611723 4.63996485 17 6 C17 6.66 17 7.32 17 8 C19.31 8.33 21.62 8.66 24 9 C20.03608787 10.53823456 17.09453843 9.42805657 13.125 8.25 C11.33449219 7.73179687 11.33449219 7.73179687 9.5078125 7.203125 C6.15357816 6.05267491 3.12662258 4.66370743 0 3 C0 3.66 0 4.32 0 5 C0.99 5.33 1.98 5.66 3 6 C2.01 6.495 2.01 6.495 1 7 C0.01 6.34 -0.98 5.68 -2 5 C-1.125 1.125 -1.125 1.125 0 0 Z " fill="#5D4624" transform="translate(138,359)"/>
<path d="M0 0 C0.33 0 0.66 0 1 0 C1.268125 1.0725 1.53625 2.145 1.8125 3.25 C2.88293962 6.63033566 3.87563263 8.29625972 6 11 C6 11.99 6 12.98 6 14 C3 14 3 14 1.625 12.6875 C1.08875 12.130625 0.5525 11.57375 0 11 C-1.64605826 9.96642853 -3.30963442 8.95939668 -5 8 C-4.34 6.68 -3.68 5.36 -3 4 C-2.34 4 -1.68 4 -1 4 C-0.67 2.68 -0.34 1.36 0 0 Z " fill="#CFCFCF" transform="translate(133,335)"/>
<path d="M0 0 C0 1.98 0 3.96 0 6 C-3.76300374 7.25433458 -7.27210909 7.10695422 -11.1875 7.0625 C-11.93708984 7.05798828 -12.68667969 7.05347656 -13.45898438 7.04882812 C-15.30602383 7.03706354 -17.15302213 7.01912865 -19 7 C-15.78036326 4.85357551 -12.55570141 3.64118646 -8.9375 2.375 C-8.30005859 2.14554687 -7.66261719 1.91609375 -7.00585938 1.6796875 C-2.261742 0 -2.261742 0 0 0 Z " fill="#092547" transform="translate(248,367)"/>
<path d="M0 0 C1.32 0.66 2.64 1.32 4 2 C3.67 3.98 3.34 5.96 3 8 C0.1875 8.6875 0.1875 8.6875 -3 9 C-4.875 7.75 -4.875 7.75 -6 6 C-6 5.01 -6 4.02 -6 3 C-5.195625 2.87625 -4.39125 2.7525 -3.5625 2.625 C-2.716875 2.41875 -1.87125 2.2125 -1 2 C-0.67 1.34 -0.34 0.68 0 0 Z " fill="#020202" transform="translate(233,226)"/>
<path d="M0 0 C0.99 0.185625 1.98 0.37125 3 0.5625 C3 0.8925 3 1.2225 3 1.5625 C6.96 1.5625 10.92 1.5625 15 1.5625 C10.57333312 4.51361125 5.98599758 4.31604849 0.76171875 4.8046875 C-3.35156508 5.63332412 -5.62036226 7.15334987 -9 9.5625 C-9.99 9.5625 -10.98 9.5625 -12 9.5625 C-4.6302149 -0.08521868 -4.6302149 -0.08521868 0 0 Z " fill="#674E28" transform="translate(220,369.4375)"/>
<path d="M0 0 C7.26 0 14.52 0 22 0 C21.67 0.66 21.34 1.32 21 2 C17.52613568 3.15795477 14.72230696 3.16829849 11.0625 3.1875 C9.83660156 3.20167969 8.61070312 3.21585937 7.34765625 3.23046875 C4.24356188 3.01676797 2.58637449 2.63998182 0 1 C0 0.67 0 0.34 0 0 Z " fill="#C05D49" transform="translate(186,319)"/>
<path d="M0 0 C0.66 0.33 1.32 0.66 2 1 C2.1953125 7.0546875 2.1953125 7.0546875 2 9 C0 11 0 11 -1.98828125 11.0546875 C-2.75527344 10.99539063 -3.52226562 10.93609375 -4.3125 10.875 C-7.99512287 10.76808514 -8.82130324 10.88330008 -12.0625 13 C-13.0215625 13.99 -13.0215625 13.99 -14 15 C-14 12 -14 12 -12.625 9.8125 C-8.63221187 7.05557486 -4.71015531 7.67640154 0 8 C0 5.36 0 2.72 0 0 Z " fill="#843F31" transform="translate(213,269)"/>
<path d="M0 0 C0.33 0 0.66 0 1 0 C0.76473648 4.6268493 0.62433547 7.11079494 -2.0625 10.9375 C-5.88920506 13.62433547 -8.3731507 13.76473648 -13 14 C-11 11 -11 11 -8.1875 9.8125 C-4.35231943 7.63171105 -3.08253051 5.42007907 -0.98046875 1.64453125 C-0.65691406 1.10183594 -0.33335937 0.55914062 0 0 Z " fill="#FEF9F6" transform="translate(269,241)"/>
<path d="M0 0 C0.66 0 1.32 0 2 0 C2.66 3.3 3.32 6.6 4 10 C3.34 10 2.68 10 2 10 C1.34 14.62 0.68 19.24 0 24 C-2 22 -2 22 -2.25 18.1875 C-2.18062911 14.69372991 -1.31186369 12.23593044 0 9 C-0.32041397 6.39719432 -0.32041397 6.39719432 -1 4 C-1 1 -1 1 0 0 Z " fill="#7B3A2D" transform="translate(110,225)"/>
<path d="M0 0 C2.31 0.33 4.62 0.66 7 1 C7 4.96 7 8.92 7 13 C6.34 13 5.68 13 5 13 C4.15930585 11.39967863 3.32768495 9.79458829 2.5 8.1875 C1.80390625 6.84751953 1.80390625 6.84751953 1.09375 5.48046875 C0 3 0 3 0 0 Z " fill="#150F0C" transform="translate(249,182)"/>
<path d="M0 0 C0.99 0.33 1.98 0.66 3 1 C3.125 3.875 3.125 3.875 3 7 C2.34 7.66 1.68 8.32 1 9 C-2.125 8.625 -2.125 8.625 -5 8 C-5.33 6.35 -5.66 4.7 -6 3 C-5.195625 2.87625 -4.39125 2.7525 -3.5625 2.625 C-2.716875 2.41875 -1.87125 2.2125 -1 2 C-0.67 1.34 -0.34 0.68 0 0 Z " fill="#000000" transform="translate(162,226)"/>
<path d="M0 0 C1.65 0 3.3 0 5 0 C5.66 1.32 6.32 2.64 7 4 C5.02 4.99 5.02 4.99 3 6 C3 8.31 3 10.62 3 13 C2.34 13 1.68 13 1 13 C1.33 10.36 1.66 7.72 2 5 C2.66 5 3.32 5 4 5 C4 4.01 4 3.02 4 2 C2.4840625 3.0209375 2.4840625 3.0209375 0.9375 4.0625 C-2.95377757 6.3257941 -5.60993163 6.07511878 -10 5 C-10 4.67 -10 4.34 -10 4 C-6.7 3.34 -3.4 2.68 0 2 C0 1.34 0 0.68 0 0 Z " fill="#4B3E29" transform="translate(249,359)"/>
<path d="M0 0 C0.91652344 0.19916016 0.91652344 0.19916016 1.8515625 0.40234375 C12.47930214 2.45304844 23.20703576 2.64561276 34 3 C34 3.33 34 3.66 34 4 C30.70898498 4.20029501 27.41719893 4.38280451 24.125 4.5625 C23.2071875 4.61857422 22.289375 4.67464844 21.34375 4.73242188 C7.83544887 5.44588848 7.83544887 5.44588848 3 4 C1.21923828 1.95141602 1.21923828 1.95141602 0 0 Z " fill="#ACACAC" transform="translate(170,301)"/>
<path d="M0 0 C1.30388672 0.00902344 2.60777344 0.01804688 3.95117188 0.02734375 C7.15513832 0.05081603 10.35872264 0.08365273 13.5625 0.125 C13.5625 0.455 13.5625 0.785 13.5625 1.125 C12.28117187 1.16238281 10.99984375 1.19976562 9.6796875 1.23828125 C-0.69831733 1.60921149 -10.35724141 2.47142199 -20.4375 5.125 C-20.7675 4.135 -21.0975 3.145 -21.4375 2.125 C-14.43305999 -0.5503801 -7.40824658 -0.0972309 0 0 Z " fill="#FDF8F5" transform="translate(150.4375,211.875)"/>
<path d="M0 0 C2.64 0.33 5.28 0.66 8 1 C4.32167983 5.52615993 0.58913637 9.39424999 -4 13 C-3.71125 12.34 -3.4225 11.68 -3.125 11 C-1.76562701 7.37500535 -0.89375361 3.76653307 0 0 Z " fill="#00A3AD" transform="translate(230,347)"/>
<path d="M0 0 C0.60199219 0.64453125 1.20398438 1.2890625 1.82421875 1.953125 C6.38617954 4.89342937 10.4898762 4.67135814 15.8125 4.75 C16.79154297 4.77964844 17.77058594 4.80929688 18.77929688 4.83984375 C21.18627953 4.91029202 23.5923079 4.96311025 26 5 C26 5.33 26 5.66 26 6 C17.31238511 6.65655389 8.71782637 7.16311941 0 7 C0 4.69 0 2.38 0 0 Z " fill="#73797C" transform="translate(162,167)"/>
<path d="M0 0 C5.39603496 -0.51390809 7.66846545 0.90604675 12 4 C14.30068482 5.1108357 16.62559733 6.05023893 19 7 C19 7.33 19 7.66 19 8 C16.03 8 13.06 8 10 8 C10 7.34 10 6.68 10 6 C6.7 4.35 3.4 2.7 0 1 C0 0.67 0 0.34 0 0 Z " fill="#9E9E9D" transform="translate(164,372)"/>
<path d="M0 0 C5.61 0.66 11.22 1.32 17 2 C14 5 14 5 11.9140625 5.3984375 C7.17258955 5.34989 3.79898504 5.18624552 0 2 C0 1.34 0 0.68 0 0 Z " fill="#00A3AD" transform="translate(182,369)"/>
<path d="M0 0 C1.26650391 0.43119141 1.26650391 0.43119141 2.55859375 0.87109375 C6.04132419 2.01355583 9.53873985 3.05406809 13.0625 4.0625 C14.84333984 4.57490234 14.84333984 4.57490234 16.66015625 5.09765625 C19.43401214 5.84708398 22.17556631 6.48209817 25 7 C25 7.33 25 7.66 25 8 C16.262174 8.59239498 7.38056611 6.92037741 0 2 C0 1.34 0 0.68 0 0 Z " fill="#9C7538" transform="translate(138,362)"/>
<path d="M0 0 C2.1640625 0.99609375 2.1640625 0.99609375 4.625 2.4375 C5.44226563 2.91058594 6.25953125 3.38367188 7.1015625 3.87109375 C7.72804687 4.24363281 8.35453125 4.61617188 9 5 C9 5.33 9 5.66 9 6 C3.72 5.67 -1.56 5.34 -7 5 C-2 1 -2 1 0 0 Z " fill="#9C9C9C" transform="translate(229,337)"/>
<path d="M0 0 C0.83724609 1.09248047 0.83724609 1.09248047 1.69140625 2.20703125 C3.95590175 4.94664932 6.3074038 7.30055599 8.9375 9.6875 C9.77152344 10.45449219 10.60554687 11.22148437 11.46484375 12.01171875 C13.93363189 13.94794858 16.04172343 15.01037975 19 16 C17.02 16.99 17.02 16.99 15 18 C12.88873076 16.11160369 10.78612242 14.21486442 8.6875 12.3125 C8.09259766 11.78205078 7.49769531 11.25160156 6.88476562 10.70507812 C3.60193561 7.71568543 1.05833678 5.00521127 -1 1 C-0.67 0.67 -0.34 0.34 0 0 Z " fill="#0A1617" transform="translate(153,347)"/>
<path d="M0 0 C4.43090471 1.20842856 6.98112756 2.51668565 10 6 C9.21625 5.95875 8.4325 5.9175 7.625 5.875 C4.83883881 5.71271266 4.83883881 5.71271266 3 8 C1.68 7.34 0.36 6.68 -1 6 C-1.042721 4.33388095 -1.04063832 2.66617115 -1 1 C-0.67 0.67 -0.34 0.34 0 0 Z " fill="#6C666F" transform="translate(112,354)"/>
<path d="M0 0 C0.33 0 0.66 0 1 0 C1.02578125 0.95261719 1.0515625 1.90523437 1.078125 2.88671875 C1.13484375 4.14097656 1.1915625 5.39523438 1.25 6.6875 C1.29640625 7.92886719 1.3428125 9.17023438 1.390625 10.44921875 C2.07581539 14.44177046 3.33305824 16.03969465 6 19 C6 19.66 6 20.32 6 21 C4.02 21 2.04 21 0 21 C0 14.07 0 7.14 0 0 Z " fill="#797F82" transform="translate(234,155)"/>
<path d="M0 0 C0.33 0 0.66 0 1 0 C1 3.96 1 7.92 1 12 C-5.93 11.505 -5.93 11.505 -13 11 C-12.67 9.68 -12.34 8.36 -12 7 C-11.195625 7.495 -11.195625 7.495 -10.375 8 C-7.43720283 9.23696723 -5.15845117 9.21056341 -2 9 C-0.50256881 7.50256881 -0.66797307 6.01175761 -0.4375 3.9375 C-0.293125 2.638125 -0.14875 1.33875 0 0 Z " fill="#848B8E" transform="translate(231,161)"/>
<path d="M0 0 C2.79192205 -0.05380578 5.5828141 -0.09357669 8.375 -0.125 C9.1690625 -0.14175781 9.963125 -0.15851563 10.78125 -0.17578125 C12.85492015 -0.19335473 14.92883241 -0.10335168 17 0 C17.66 0.66 18.32 1.32 19 2 C18.625 4.125 18.625 4.125 18 6 C17.34 5.01 16.68 4.02 16 3 C13.22737745 2.61605333 10.65676472 2.39657752 7.875 2.3125 C7.12089844 2.27833984 6.36679688 2.24417969 5.58984375 2.20898438 C3.72708799 2.12645722 1.86356674 2.06155289 0 2 C0 1.34 0 0.68 0 0 Z " fill="#D1D9DC" transform="translate(196,158)"/>
<path d="M0 0 C0.99 0.33 1.98 0.66 3 1 C2.773125 1.70125 2.54625 2.4025 2.3125 3.125 C1.89932939 6.92616962 3.11969011 8.72686796 5 12 C5.66666667 13.33333333 6.33333333 14.66666667 7 16 C6.34 16.33 5.68 16.66 5 17 C-1.42801303 8.5632329 -1.42801303 8.5632329 -1.4375 4 C-1 1 -1 1 0 0 Z " fill="#858585" transform="translate(135,332)"/>
<path d="M0 0 C1.9375 0.375 1.9375 0.375 4 1 C5 3 5 3 4.3125 6.25 C2.98573143 10.04076735 1.46572638 12.84078807 -1 16 C-1.66 16 -2.32 16 -3 16 C-2.690625 15.278125 -2.38125 14.55625 -2.0625 13.8125 C-1.0730023 11.19324139 -0.51869181 8.74165672 0 6 C0.33 5.34 0.66 4.68 1 4 C0.60061233 1.90178785 0.60061233 1.90178785 0 0 Z " fill="#808080" transform="translate(252,330)"/>
<path d="M0 0 C-0.79664063 0.32613281 -1.59328125 0.65226563 -2.4140625 0.98828125 C-9.09954291 3.69269132 -9.09954291 3.69269132 -15.5625 6.875 C-18 8 -18 8 -21 7 C-19.69565815 4.39131631 -18.75532956 4.37070224 -16.03515625 3.45703125 C-15.23529297 3.18826172 -14.43542969 2.91949219 -13.61132812 2.64257812 C-12.77021484 2.36865234 -11.92910156 2.09472656 -11.0625 1.8125 C-10.22525391 1.52697266 -9.38800781 1.24144531 -8.52539062 0.94726562 C-7.72423828 0.68236328 -6.92308594 0.41746094 -6.09765625 0.14453125 C-4.99176147 -0.22128052 -4.99176147 -0.22128052 -3.86352539 -0.59448242 C-2 -1 -2 -1 0 0 Z " fill="#1E1C1C" transform="translate(228,145)"/>
<path d="M0 0 C4.29 0.66 8.58 1.32 13 2 C13.33 3.32 13.66 4.64 14 6 C12.989375 5.67 11.97875 5.34 10.9375 5 C7.24520089 3.92998679 3.84751793 3.84295845 0 4 C0 2.68 0 1.36 0 0 Z " fill="#221E22" transform="translate(145,369)"/>
<path d="M0 0 C0.33 0 0.66 0 1 0 C2.34495828 7.09705662 3.24091535 13.7725395 3 21 C0.10945348 18.10945348 0.00716552 16.27830867 -0.09765625 12.20703125 C-0.09102785 10.74215562 -0.07913087 9.27729622 -0.0625 7.8125 C-0.05798828 7.06291016 -0.05347656 6.31332031 -0.04882812 5.54101562 C-0.03706354 3.69397617 -0.01912865 1.84697787 0 0 Z " fill="#733329" transform="translate(205,234)"/>
<path d="M0 0 C1.31571603 0.2547514 2.62760376 0.52934141 3.9375 0.8125 C4.66839844 0.96332031 5.39929688 1.11414063 6.15234375 1.26953125 C6.76207031 1.51058594 7.37179688 1.75164062 8 2 C8.33 2.99 8.66 3.98 9 5 C6 7 6 7 3.3125 6.625 C2.549375 6.41875 1.78625 6.2125 1 6 C0.67 4.02 0.34 2.04 0 0 Z " fill="#838A8D" transform="translate(106,182)"/>
<path d="M0 0 C0.66 0.33 1.32 0.66 2 1 C-0.05210116 5.25078098 -1.55414313 8.07346202 -6 10 C-5.5020163 6.26512223 -5.12508244 4.18762365 -3 1 C-2.01 0.67 -1.02 0.34 0 0 Z " fill="#B8B8B8" transform="translate(256,340)"/>
<path d="M0 0 C0.94746094 -0.01675781 1.89492187 -0.03351563 2.87109375 -0.05078125 C5.93375309 0.36261109 7.28868559 1.27520529 9.5625 3.3125 C5.67189581 4.7174404 2.33157638 4.00763239 -1.6875 3.375 C-3.58242187 3.08302734 -3.58242187 3.08302734 -5.515625 2.78515625 C-6.47984375 2.62917969 -7.4440625 2.47320312 -8.4375 2.3125 C-5.11533762 0.09772508 -3.88716677 0.01582293 0 0 Z " fill="#D28165" transform="translate(160.4375,217.6875)"/>
<path d="M0 0 C2.48235437 0.78264362 4.96056096 1.57555277 7.4375 2.375 C8.14455078 2.59671875 8.85160156 2.8184375 9.58007812 3.046875 C11.4062189 3.64102606 13.20577032 4.31549619 15 5 C15.33 5.66 15.66 6.32 16 7 C9.59859065 6.53444296 4.73230171 4.85288164 -1 2 C-0.67 1.34 -0.34 0.68 0 0 Z " fill="#22211D" transform="translate(175,374)"/>
<path d="M0 0 C0.33 0.99 0.66 1.98 1 3 C-0.26572233 4.15147661 -1.53777906 5.29599314 -2.8125 6.4375 C-3.52019531 7.07558594 -4.22789062 7.71367187 -4.95703125 8.37109375 C-7 10 -7 10 -10 11 C-8.67367286 5.36310966 -4.53368235 3.06814317 0 0 Z " fill="#0C0907" transform="translate(227,299)"/>
<path d="M0 0 C0.85722656 -0.00515625 1.71445313 -0.0103125 2.59765625 -0.015625 C4.9375 0.25 4.9375 0.25 7.9375 2.25 C5.66911744 2.63955051 3.39765313 3.01119129 1.125 3.375 C-0.13957031 3.58382812 -1.40414062 3.79265625 -2.70703125 4.0078125 C-6.0625 4.25 -6.0625 4.25 -9.0625 2.25 C-5.93061623 0.41882898 -3.61429405 -0.0218057 0 0 Z " fill="#D18064" transform="translate(232.0625,217.75)"/>
<path d="M0 0 C1.09054688 0.02320313 2.18109375 0.04640625 3.3046875 0.0703125 C4.40039062 0.08835937 5.49609375 0.10640625 6.625 0.125 C7.46804687 0.14820313 8.31109375 0.17140625 9.1796875 0.1953125 C5.9151847 3.4598153 1.76921451 4.12767305 -2.7578125 4.3203125 C-3.4384375 4.2790625 -4.1190625 4.2378125 -4.8203125 4.1953125 C-4.8203125 0.68661631 -3.24277412 0.22456884 0 0 Z " fill="#C4C3C1" transform="translate(229.8203125,364.8046875)"/>
<path d="M0 0 C-1 3 -1 3 -2.92578125 3.984375 C-3.71339844 4.23703125 -4.50101563 4.4896875 -5.3125 4.75 C-6.09238281 5.01296875 -6.87226563 5.2759375 -7.67578125 5.546875 C-10.16921091 6.03298902 -11.6181897 5.80665429 -14 5 C-13 3 -13 3 -10.56640625 2.1484375 C-9.57511719 1.89320313 -8.58382812 1.63796875 -7.5625 1.375 C-6.07943359 0.98441406 -6.07943359 0.98441406 -4.56640625 0.5859375 C-2 0 -2 0 0 0 Z " fill="#080606" transform="translate(171,180)"/>
<path d="M0 0 C-0.57344937 2.86724686 -0.8614515 3.8614515 -3 6 C-5.625 6.125 -5.625 6.125 -8 6 C-8 4.68 -8 3.36 -8 2 C-5.09399739 0.74335022 -3.20395416 0 0 0 Z " fill="#858B8E" transform="translate(162,101)"/>
<path d="M0 0 C1 2 1 2 0.4375 4.3125 C-0.08485076 7.52122608 0.60073949 9.11916954 2 12 C0.35 11.67 -1.3 11.34 -3 11 C-3.75 8.3125 -3.75 8.3125 -4 5 C-2.0625 2.125 -2.0625 2.125 0 0 Z " fill="#C1C1C1" transform="translate(141,332)"/>
<path d="M0 0 C0.66 0.33 1.32 0.66 2 1 C-1.78240597 6.6847995 -1.78240597 6.6847995 -4.91259766 7.49511719 C-7.07254392 7.58962436 -9.15592794 7.52532406 -11.3125 7.375 C-12.05306641 7.34792969 -12.79363281 7.32085937 -13.55664062 7.29296875 C-15.37235998 7.22268284 -17.18656801 7.11507089 -19 7 C-19 6.67 -19 6.34 -19 6 C-17.57107422 5.97873047 -17.57107422 5.97873047 -16.11328125 5.95703125 C-8.1996583 6.08312159 -8.1996583 6.08312159 -1.625 2.4375 C-1.08875 1.633125 -0.5525 0.82875 0 0 Z " fill="#A3AFAE" transform="translate(210,374)"/>
<path d="M0 0 C1.125 3.75 1.125 3.75 0 6 C-3.3 5.01 -6.6 4.02 -10 3 C-10 2.34 -10 1.68 -10 1 C-9.36191406 1.01160156 -8.72382813 1.02320313 -8.06640625 1.03515625 C-7.24011719 1.04417969 -6.41382813 1.05320313 -5.5625 1.0625 C-4.32693359 1.07990234 -4.32693359 1.07990234 -3.06640625 1.09765625 C-1.00836062 1.23267348 -1.00836062 1.23267348 0 0 Z " fill="#899194" transform="translate(278,180)"/>
<path d="M0 0 C3.85025879 0.60355408 6.86101159 1.76772603 10.3125 3.5625 C11.19550781 4.01753906 12.07851562 4.47257812 12.98828125 4.94140625 C13.65214844 5.29074219 14.31601563 5.64007813 15 6 C15 6.33 15 6.66 15 7 C12.03 7 9.06 7 6 7 C5.67 6.01 5.34 5.02 5 4 C3.37667033 2.61423077 1.71275535 1.27358732 0 0 Z " fill="#5B5D5D" transform="translate(161,372)"/>
<path d="M0 0 C3.5625 0.875 3.5625 0.875 7.5625 4.875 C2.9425 3.885 -1.6775 2.895 -6.4375 1.875 C-3.4375 -0.125 -3.4375 -0.125 0 0 Z " fill="#45484E" transform="translate(151.4375,372.125)"/>
<path d="M0 0 C0.66 0 1.32 0 2 0 C3.54586876 3.09173752 3.29359521 5.59429552 3 9 C1 11.4375 1 11.4375 -1 13 C-1.33 12.34 -1.66 11.68 -2 11 C-1.67 10.01 -1.34 9.02 -1 8 C-0.34 8 0.32 8 1 8 C0.67 5.36 0.34 2.72 0 0 Z " fill="#0D0C0C" transform="translate(141,348)"/>
<path d="M0 0 C2.48046875 1.08203125 2.48046875 1.08203125 5 3 C5.48828125 6.13671875 5.48828125 6.13671875 5.3125 9.6875 C5.26738281 10.86699219 5.22226562 12.04648438 5.17578125 13.26171875 C5.11777344 14.16535156 5.05976563 15.06898438 5 16 C4.67 16 4.34 16 4 16 C3.34 11.71 2.68 7.42 2 3 C1.01 3.33 0.02 3.66 -1 4 C-0.67 2.68 -0.34 1.36 0 0 Z " fill="#712F25" transform="translate(279,232)"/>
<path d="M0 0 C-3.732388 3.57011026 -8.0949989 4.10913442 -13 5 C-8.49251112 0.34226149 -6.53321609 -0.12098548 0 0 Z " fill="#AEADAC" transform="translate(224,374)"/>
<path d="M0 0 C2.27076842 -0.02699725 4.54162821 -0.04639453 6.8125 -0.0625 C8.07707031 -0.07410156 9.34164062 -0.08570313 10.64453125 -0.09765625 C14 0 14 0 17 1 C17.33 1.99 17.66 2.98 18 4 C17.45472656 3.86722656 16.90945312 3.73445312 16.34765625 3.59765625 C10.90097013 2.32210753 5.56879648 1.53036157 0 1 C0 0.67 0 0.34 0 0 Z " fill="#525252" transform="translate(191,131)"/>
<path d="M0 0 C3.3 0 6.6 0 10 0 C7.57869669 2.42130331 6.19888623 2.52840504 2.875 3.125 C1.50988281 3.37636719 1.50988281 3.37636719 0.1171875 3.6328125 C-0.58148438 3.75398438 -1.28015625 3.87515625 -2 4 C-1.34 2.68 -0.68 1.36 0 0 Z " fill="#1455A0" transform="translate(235,373)"/>
<path d="M0 0 C1.62723299 0.45034123 3.25173664 0.91055354 4.875 1.375 C5.77992188 1.63023437 6.68484375 1.88546875 7.6171875 2.1484375 C10 3 10 3 12 5 C9.39517051 5.94721072 7.69325299 6.30222393 5.109375 5.17578125 C3.37417127 4.17063275 1.68359577 3.0893855 0 2 C0 1.34 0 0.68 0 0 Z " fill="#535353" transform="translate(166,367)"/>
<path d="M0 0 C3.63 0 7.26 0 11 0 C11 0.99 11 1.98 11 3 C7.04 3 3.08 3 -1 3 C-0.67 2.01 -0.34 1.02 0 0 Z " fill="#DFDFDF" transform="translate(192,230)"/>
<path d="M0 0 C-1 2 -1 2 -3.06640625 2.8515625 C-4.30197266 3.23441406 -4.30197266 3.23441406 -5.5625 3.625 C-6.38878906 3.88539063 -7.21507812 4.14578125 -8.06640625 4.4140625 C-8.70449219 4.60742188 -9.34257812 4.80078125 -10 5 C-10 4.01 -10 3.02 -10 2 C-3.375 -1.125 -3.375 -1.125 0 0 Z " fill="#16110E" transform="translate(181,177)"/>
<path d="M0 0 C0 0.66 0 1.32 0 2 C2.31 2.33 4.62 2.66 7 3 C3.23331402 4.3805087 0.55210827 3.59568159 -3.25 2.5625 C-4.86648437 2.13130859 -4.86648437 2.13130859 -6.515625 1.69140625 C-7.74539062 1.34916016 -7.74539062 1.34916016 -9 1 C-5.52452927 -0.94566951 -3.87493656 -1.07637127 0 0 Z " fill="#574730" transform="translate(155,365)"/>
<path d="M0 0 C0.99 0.66 1.98 1.32 3 2 C2.34 3.32 1.68 4.64 1 6 C0.34 6 -0.32 6 -1 6 C-1 8.31 -1 10.62 -1 13 C-1.66 13 -2.32 13 -3 13 C-2.67 10.36 -2.34 7.72 -2 5 C-1.34 5 -0.68 5 0 5 C0 3.35 0 1.7 0 0 Z " fill="#121F2F" transform="translate(253,359)"/>
<path d="M0 0 C1.67013418 0.65793165 3.3357865 1.32723284 5 2 C5.61230469 2.24105469 6.22460938 2.48210937 6.85546875 2.73046875 C11.88712807 4.77425614 11.88712807 4.77425614 13 7 C7.71862571 6.48474397 4.42778844 4.74522883 0 2 C0 1.34 0 0.68 0 0 Z " fill="#848484" transform="translate(154,357)"/>
<path d="M0 0 C6 7.4 6 7.4 6 11 C5.01 11 4.02 11 3 11 C1.38935371 7.34920174 0.55105909 3.9492568 0 0 Z " fill="#E0E0E0" transform="translate(133,338)"/>
<path d="M0 0 C1.65 0.33 3.3 0.66 5 1 C4.67 2.32 4.34 3.64 4 5 C2.35 4.67 0.7 4.34 -1 4 C-0.67 2.68 -0.34 1.36 0 0 Z " fill="#DEDDDD" transform="translate(228,224)"/>
<path d="M0 0 C1.65 0.33 3.3 0.66 5 1 C4.67 2.32 4.34 3.64 4 5 C2.35 4.67 0.7 4.34 -1 4 C-0.67 2.68 -0.34 1.36 0 0 Z " fill="#E9E9E9" transform="translate(157,224)"/>
<path d="M0 0 C0.99 0.33 1.98 0.66 3 1 C0.36 3.64 -2.28 6.28 -5 9 C-5.66 8.34 -6.32 7.68 -7 7 C-4.69 4.69 -2.38 2.38 0 0 Z " fill="#112526" transform="translate(235,351)"/>
<path d="M0 0 C1.32 0 2.64 0 4 0 C2.70700306 2.88437779 1.34058637 4.87219421 -1 7 C-1.625 4.625 -1.625 4.625 -2 2 C-1.34 1.34 -0.68 0.68 0 0 Z " fill="#C0C0C0" transform="translate(146,329)"/>
<path d="M0 0 C2.04119788 1.61594832 4.04072937 3.2856382 6 5 C6 5.66 6 6.32 6 7 C4.02 7 2.04 7 0 7 C0 4.69 0 2.38 0 0 Z " fill="#8F979A" transform="translate(162,167)"/>
<path d="M0 0 C3.71888239 0.50712033 6.73454239 1.11608215 10 3 C10 3.66 10 4.32 10 5 C6.7 4.01 3.4 3.02 0 2 C0 1.34 0 0.68 0 0 Z " fill="#AEAEAE" transform="translate(174,372)"/>
<path d="M0 0 C4.28477792 2.30718811 7.72291137 4.32966073 11 8 C5.97307937 7.54300722 2.85103739 5.00758252 -1 2 C-0.67 1.34 -0.34 0.68 0 0 Z " fill="#0C0C0D" transform="translate(128,348)"/>
<path d="M0 0 C2.01822917 0.06510417 4.03645833 0.13020833 6.0546875 0.1953125 C5.7246875 1.1853125 5.3946875 2.1753125 5.0546875 3.1953125 C2.0846875 2.8653125 -0.8853125 2.5353125 -3.9453125 2.1953125 C-1.9453125 0.1953125 -1.9453125 0.1953125 0 0 Z " fill="#453B36" transform="translate(170.9453125,237.8046875)"/>
<path d="M0 0 C1.32 0.33 2.64 0.66 4 1 C1.36 2.98 -1.28 4.96 -4 7 C-4.66 6.67 -5.32 6.34 -6 6 C-5.09972412 4.96468274 -4.17906965 3.94705835 -3.25 2.9375 C-2.48429688 2.08478516 -2.48429688 2.08478516 -1.703125 1.21484375 C-1.14109375 0.81394531 -0.5790625 0.41304687 0 0 Z " fill="#030303" transform="translate(225,176)"/>
<path d="M0 0 C0.33 0.99 0.66 1.98 1 3 C0.34 3.66 -0.32 4.32 -1 5 C-4.125 4.625 -4.125 4.625 -7 4 C-7 3.34 -7 2.68 -7 2 C-4.69 1.34 -2.38 0.68 0 0 Z " fill="#878E91" transform="translate(286,183)"/>
<path d="M0 0 C0.66 0.33 1.32 0.66 2 1 C-1.07999946 4.67230705 -3.2482602 5.56802365 -8 6 C-5.54080489 3.3651481 -3.42227589 1.25483449 0 0 Z " fill="#0A0706" transform="translate(231,179)"/>
<path d="M0 0 C1.65 0 3.3 0 5 0 C4.8125 1.8125 4.8125 1.8125 4 4 C1.5625 5.8125 1.5625 5.8125 -1 7 C-1.66 6.67 -2.32 6.34 -3 6 C-1.68 4.68 -0.36 3.36 1 2 C0.67 1.34 0.34 0.68 0 0 Z " fill="#505050" transform="translate(226,150)"/>
<path d="M0 0 C-0.59861742 2.35171131 -1.26924352 4.6859378 -2 7 C-2.99 7.495 -2.99 7.495 -4 8 C-4 6.68 -4 5.36 -4 4 C-4.66 3.67 -5.32 3.34 -6 3 C-2.25 0 -2.25 0 0 0 Z " fill="#EBEBEB" transform="translate(205,371)"/>
<path d="M0 0 C0.99 0 1.98 0 3 0 C3.309375 0.78375 3.61875 1.5675 3.9375 2.375 C4.92875038 4.92330128 4.92875038 4.92330128 6 7 C4.35 7 2.7 7 1 7 C0.67 4.69 0.34 2.38 0 0 Z " fill="#8F8F8F" transform="translate(150,337)"/>
<path d="M0 0 C0.66 0.33 1.32 0.66 2 1 C-0.64 3.97 -3.28 6.94 -6 10 C-6.66 9.67 -7.32 9.34 -8 9 C-5.36 6.03 -2.72 3.06 0 0 Z " fill="#23201C" transform="translate(216,370)"/>
<path d="M0 0 C0.99 0 1.98 0 3 0 C3 0.99 3 1.98 3 3 C3.99 3.33 4.98 3.66 6 4 C5.01 4.66 4.02 5.32 3 6 C1.68 5.34 0.36 4.68 -1 4 C-0.34 3.67 0.32 3.34 1 3 C0.34 2.34 -0.32 1.68 -1 1 C-0.67 0.67 -0.34 0.34 0 0 Z " fill="#1D2D2E" transform="translate(179,368)"/>
<path d="M0 0 C3.68754757 0.49831724 5.60490662 1.10067643 8 4 C6.35 4.66 4.7 5.32 3 6 C2.01 4.02 1.02 2.04 0 0 Z " fill="#145CB4" transform="translate(278,353)"/>
<path d="M0 0 C2.8125 -0.25 2.8125 -0.25 6 0 C7.875 2 7.875 2 9 4 C4.545 3.01 4.545 3.01 0 2 C0 1.34 0 0.68 0 0 Z " fill="#BB785E" transform="translate(183,279)"/>
<path d="M0 0 C0.433125 0.9590625 0.433125 0.9590625 0.875 1.9375 C1.82823451 4.15206079 1.82823451 4.15206079 4 5 C4 5.66 4 6.32 4 7 C1.0625 6.1875 1.0625 6.1875 -2 5 C-2.33 4.01 -2.66 3.02 -3 2 C-2.01 1.34 -1.02 0.68 0 0 Z " fill="#1A1410" transform="translate(213,233)"/>
<path d="M0 0 C2.31 0.66 4.62 1.32 7 2 C3.81237635 4.12508244 1.73487777 4.5020163 -2 5 C-1.34 4.01 -0.68 3.02 0 2 C0 1.34 0 0.68 0 0 Z " fill="#6E5F47" transform="translate(237,363)"/>
<path d="M0 0 C0.33 0.66 0.66 1.32 1 2 C0.22265625 3.9453125 0.22265625 3.9453125 -0.9375 6.125 C-1.31777344 6.84945313 -1.69804687 7.57390625 -2.08984375 8.3203125 C-2.39019531 8.87460937 -2.69054687 9.42890625 -3 10 C-3.66 8.68 -4.32 7.36 -5 6 C-3.35 4.02 -1.7 2.04 0 0 Z " fill="#EBEBEB" transform="translate(251,339)"/>
<path d="M0 0 C1.32 0.66 2.64 1.32 4 2 C3.236875 2.45375 2.47375 2.9075 1.6875 3.375 C-0.23632814 4.53824492 -2.12941224 5.7529415 -4 7 C-4 4 -4 4 -2 1.8125 C-1.34 1.214375 -0.68 0.61625 0 0 Z " fill="#793428" transform="translate(203,277)"/>
<path d="M0 0 C2.625 0.9375 2.625 0.9375 5 2 C5 2.33 5 2.66 5 3 C1.37 3.33 -2.26 3.66 -6 4 C-2 1 -2 1 0 0 Z " fill="#235489" transform="translate(226,375)"/>
<path d="M0 0 C0 1.65 0 3.3 0 5 C-0.66 4.67 -1.32 4.34 -2 4 C-2 3.34 -2 2.68 -2 2 C-4.97 1.67 -7.94 1.34 -11 1 C-11 0.67 -11 0.34 -11 0 C-3.375 -1.125 -3.375 -1.125 0 0 Z " fill="#393838" transform="translate(205,229)"/>
<path d="M0 0 C1.98 0 3.96 0 6 0 C6.33 1.32 6.66 2.64 7 4 C4.69 3.34 2.38 2.68 0 2 C0 1.34 0 0.68 0 0 Z " fill="#2C272B" transform="translate(152,371)"/>
<path d="M0 0 C0.99 0.33 1.98 0.66 3 1 C1.515 4.465 1.515 4.465 0 8 C-0.33 8 -0.66 8 -1 8 C-1.04241723 5.66705225 -1.04092937 3.33297433 -1 1 C-0.67 0.67 -0.34 0.34 0 0 Z " fill="#797979" transform="translate(135,332)"/>
<path d="M0 0 C4.455 1.98 4.455 1.98 9 4 C9 4.33 9 4.66 9 5 C3.5 5.36666667 3.5 5.36666667 1.125 3.625 C0 2 0 2 0 0 Z " fill="#373126" transform="translate(141,360)"/>
<path d="M0 0 C2.64 0 5.28 0 8 0 C7.01 1.485 7.01 1.485 6 3 C3.5625 2.625 3.5625 2.625 1 2 C0.67 1.34 0.34 0.68 0 0 Z " fill="#C06650" transform="translate(192,280)"/>
<path d="M0 0 C0.763125 0.0825 1.52625 0.165 2.3125 0.25 C2.3125 0.91 2.3125 1.57 2.3125 2.25 C-0.3275 2.91 -2.9675 3.57 -5.6875 4.25 C-3.34903846 0.31153846 -3.34903846 0.31153846 0 0 Z " fill="#BC795F" transform="translate(206.6875,278.75)"/>
<path d="M0 0 C0.66 0.33 1.32 0.66 2 1 C1.34 2.65 0.68 4.3 0 6 C-0.66 6 -1.32 6 -2 6 C-2 5.34 -2 4.68 -2 4 C-2.66 3.67 -3.32 3.34 -4 3 C-2.68 2.01 -1.36 1.02 0 0 Z " fill="#1B1817" transform="translate(224,180)"/>
</svg>
